<?xml version="1.0" encoding="iso-8859-1"?><!DOCTYPE svg PUBLIC "-//W3C//DTD SVG 1.1//EN" "http://www.w3.org/Graphics/SVG/1.1/DTD/svg11.dtd"><svg viewBox="0 0 1000 512" xmlns="http://www.w3.org/2000/svg" xmlns:xlink="http://www.w3.org/1999/xlink"><style>:root>svg{display:none}:root>svg:target{display:block}</style><svg viewBox="0 0 512 512" id="icons--arrow" xmlns="http://www.w3.org/2000/svg"><path d="M508.875 248.458l-160-160c-4.167-4.167-10.917-4.167-15.083 0-4.167 4.167-4.167 10.917 0 15.083l141.792 141.792H10.667C4.771 245.333 0 250.104 0 256s4.771 10.667 10.667 10.667h464.917L333.792 408.458c-4.167 4.167-4.167 10.917 0 15.083a10.634 10.634 0 007.542 3.125c2.729 0 5.458-1.042 7.542-3.125l160-160c4.166-4.166 4.166-10.916-.001-15.083z"/></svg><svg viewBox="0 0 1000 500" id="icons--brand" xmlns="http://www.w3.org/2000/svg"><path d="M435.9 336.6c-.6.2-1.2.4-1.6.4l-22-1.2c-7.2-.2-14.4-.6-21.6-.8-6.8-.4-13.6-.8-20.4-1-6.6-.2-13.4-.4-20.2-.8-3.8-.2-7.6-.4-11.4-.2-4.6-.4-9.4-.4-14.2-.6l-17.8-.6c-6.2 0-12.2-.2-18.4-.4-5.2 0-10.6-.2-16-.2h-20.2c-8 0-16.2.2-24.4.2-1.8 0-3.2.4-4.6 1.8-4.8 3.8-9.6 7.8-14.6 11.4-5.2 4-10.6 7.6-16 11.2-14.4 9.8-29.8 18.2-45.4 25.8-15.2 7.6-30.8 14.4-46.8 19.8-6.2 2-12.4 4-18.6 5.8-8.6 2.4-17.2 4.2-25.8 5.6-9 1.4-17.8 1.6-26.4.8-6.4-.6-12-2.6-16.6-6.4-1.4-1-2.4-2.4-3.6-3.8-2.4-3.6-2.6-7.4-1.2-12.2 1.4-4 3.6-7.6 6.6-11 4.2-5 9-9.4 14.4-13 9.8-7 20.4-12.4 31.4-17 7.2-2.8 14.8-5.2 22.4-7.6 7-2 14-4 21.2-5.4 5-.8 10.4-2 15.6-3.2 1.6-.2 2-.6 2.6-2.2 1-3.6 2.8-7 4.2-10.6 1-2.8 1.8-5.8 3-8.4l2.6-6.2c1.4-3.6 2.6-7.2 4-11 1.4-3.2 3-6.8 4.2-10.2 2.6-6.2 5-12.6 7.6-19 .2-.6.6-1.2.8-1.8 1.8-4.6 3.6-9.4 5.6-14 1.6-3.4 3-7 4.4-10.4 1.2-3 2.4-6 3.4-9 1.6-3.4 3-7 4.6-10.6 2.6-6 4.8-12 7.4-18l7.2-17.2c2.4-5.8 4.8-11.6 7.2-17.2 2-4.4 3.8-8.4 6-12.6 1.6-3.4 3.2-7 4.8-10.2l.6-1.6c-.6-1-1.6-1.4-2.4-1.6-5.6-2.8-11.6-4.8-17.6-7-14.8-5.2-30.2-9.6-45.8-12.8-2-.4-4.2-1-6.2-1.6-1-.4-1.8-.8-2.6-1.4 0-.2-.2-.4-.4-.6-.2-.2-.2-.8.2-1.2.4 0 1 0 1 .2.4 1 1.2 1.2 2.2 1.4 2.8.4 5.2 1 8 1.2 10.8 2 21.4 4.6 31.8 7.6 11.2 3.2 22.2 7 32.8 12 .6.2 1.2.6 1.8.6 1.2.4 2.2.8 3 1.4 1 .8 2.2 1.2 3.2 1.8 13.6 7 26.2 15.4 37.2 25.8 9.6 9.2 17.6 19.6 23.2 32 1 2.2 2.2 4.4 2.8 6.8 1.8 5.2 3.4 10.8 4.6 16.6 1.4 9 1.2 18.2-.2 27.6-.8 5.4-2.2 11-4.4 16.2-.2.8-.4 1.6-.8 2.2-.2.6-.4 1.4-.8 2-2 3.2-3.6 6.6-5 10v.2c-.6.6-1 1.4-1.6 2.2-4.2 7.8-9.6 14.8-15 21.8-.4.4-.6 1-1.2 1.4-1.2 2-2.6 3.8-4.6 5.4-.4.4-.8.6-1 1-1.8 3-4.6 5-7.2 7.4-.6.8-1.4 1.2-1.6 2.4.4.2.6.6 1.2.4h22.8c5.2 0 10.8 0 16 .2 5 0 10.2 0 15.2.2 5.2 0 10.4.2 15.4.2l12 .6c6.6.2 13.2.4 19.8 1 6.2 0 12.2.6 18.2.8 6.2.2 12.4.6 18.4.8 7.2.4 14.2 1 21.2 1.4 6 .2 12.2.4 18.4 1 6.2.2 12.4.8 18.6 1 1.8.2 3.4.8 4.8 1.8.6.4.8.8 1 1.4.2.4 0 1-.4 1zM13.7 385c.6-.4 1.2-.4 1.6-.6.8-1 1.8-2.2 2.4-3.4l1.2-2c.6-.6 1.2-1 1.2-2-1.4 1.4-2.6 2.4-3.6 4-1.2 1-2.2 2.2-2.8 4zm195.8-52.6c-1.2-.8-2.6-.6-4.2-.4-6.8.4-13.6.6-20.8 1-6.2.4-12.6.6-18.8 1.2-9.4.8-18.8 2-28 3-2 .2-4 .4-6 .8-3 .6-3.2.8-4.4 3.6-3.4 9-7 17.6-10.4 26.2l-2.4 5.2c-.2.4-.4.6-.6.8 0-1.4.6-2.6 1-3.8l1.8-3.8c.4-1.2.8-2.4 1.4-3.8.4-1.2 1-2.4 1.4-3.8.6-1.2 1-2.4 1.4-3.6.6-1.2 1-2.6 1.6-3.8.6-1.2 1-2.6 1.6-3.8.4-1.4 1-2.6 1.4-3.8.6-1.2 1.2-2.2 1.4-3.8-.6.4-1 .6-1 .8-.6 1.4-1.4 3-1.8 4.6-3.6 8.6-7 17.2-10.6 26-.2 1-1 2-1.4 2.8-.8 1.4-1.8 1.4-2.2.4s-.8-1.4-2-1.2c-.8.2-1.2-.6-1.2-1.4 0-.2.2-.4.4-.8.4-1.8 1.2-3.6 2-5.4 2.8-7.2 5.6-14.6 8.6-21.8.2-1 .8-2 .4-3.4-.6.2-1.4 0-2 0l-5 1.2c-6.4 1.6-13 2.8-19.6 4.6-7.8 2-15.4 4.4-23 7.2-10.4 4-20.6 9-30.4 15.2-5.2 3.4-10 7.6-14.6 12-.6.6-1 1.2-1.8 1.8-.6.8-1 1.4-1.6 2-2.2 2.6-4 5.2-4.8 8.2-1.6 4.6-1 8.6 1.8 12 1.4 2 3.8 3 6.4 3.6 5 1 10 1.2 15.2.8 8-.4 15.8-1.6 24-3.4 10-2.2 19.8-5 29.8-8.6 4.4-1.6 9-3.4 13.6-5 8.8-3.6 17.6-7.4 26.2-11.6 13-6.2 25.6-12.6 37.8-20.2 5.8-3.4 11.4-7 17-10.6l8-5.6c4.2-3 8.6-6.2 12.8-9.6.4-.4.8-.6 1-1 .2-.2.4-.6.6-1zM20.3 381.6c-2.2 2.4-4.2 4.8-5.2 8l1-1c2-2.8 4-5.6 6-8.2v-.8c-.8.8-1.4 1.4-1.8 2zm98.4-33.4l.2-.2.6-1.8-.6 1.6c0 .2 0 .2-.2.4zm11-16.4c.4-.4.8-.6 1-1 2-5.4 4.2-10.8 6.4-16 .2-.6.2-1.4.4-2 .6-1.6 1.6-3 2-4.4 3.4-8 6.6-16 9.6-23.8 2-5 3.8-9.6 5.6-14.6.6-1.2.8-2.4 1-3.6.6-1 1.2-1.6 1.4-2.4 1.4-3.6 3-7.2 4.4-11 .4-1 .6-2.2.8-3-.2.2-.4.6-.6 1-2 4.4-3.6 8.8-5.4 13.2-.2.8-.2 1.4-.6 2.2l-1.2 2.4c-2.2 5.4-4.2 10.6-6.4 16-3.4 8-6.4 16.2-9.8 24.4-.6 1.2-1 2.4-.8 3.6-1 .6-1.2 1.8-1.6 2.8-.6 1.2-1 2.6-1.6 3.8-1.4 3.6-2.8 7.4-4.2 10.8-.2.6-.4 1.2-.4 1.6zm104.6-21.6c3.8-3.8 7.4-7.8 10.8-12.2 4-5 7.4-10.2 10.6-15.6 1.6-2.6 3-5.4 4.2-8l1.8-4.4c3.2-6.2 4.8-12.8 6.2-19 1.2-6.4 1.6-12.6 1.6-19-.2-10-2.2-19.4-5.6-28.4-4.6-11.6-11.6-21.8-20.2-30.6-10.6-10.8-23.2-19.2-36.8-26.4-2.6-1.2-2.8-1.2-3.8 2-1.2 4-2.4 7.8-4 11.8-2.2 6.2-4.8 12.2-7.2 18.4-1.2 3-2.6 6.4-3.6 9.6-1 2.4-2.2 4.8-2.8 7.2-2.6 5-4.2 10.2-6.4 15.2-2.2 5.6-4.4 11.2-6.4 16.8-2 4.8-4 9.6-5.8 14.4-1.6 4-2.8 7.8-4.2 11.8-.8 1-1.4 2-1.2 3.2-1 1.2-1.4 2.4-1.6 3.6l-1.2 2.4c-1 2.2-1.8 4.4-2.6 6.6l-11.8 29.8c-.4.8-.4 1.6-.6 2.4-.6.8-1 1.6-1.6 2.8l-3 8c-.6 1.2-.8 2.4-1.4 3.8l.2-.2c-.4.6-.6 1.2-.8 1.8-.2.8-1 1.4-1.2 2.2l-3.6 9.2-.6 1.8c1.4 1 1.4 1 3.2.6 15.2-2 30.2-3.6 45.2-4.4l16-1.2c3 0 6 0 9-.2 3.8-.2 7.2 0 10.8-.2.4-.2 1-.2 1.6-.2.6-.4 1.4-.4 2-1l8.2-7.2c2.4-2.2 4.6-4.8 6.6-7.2zm-97.8-7.6c.2-.4.4-.6.6-1.2-.2.2-.2.2-.4.2 0 .4-.2.6-.2 1zm9.2-23l.6-1.6c.2-.6.6-1 .8-1.4v-.2c-.2.6-.6 1-1 1.6 0 .4-.2 1-.4 1.6zm16.8-30.2c1-1.4 1.6-3 2-4.4-1.4 1.4-1.8 2.8-2 4.4zm3.8-9.2c1.2-1.8 1.6-3.4 2-5.2.6-1.2 1.2-2.2 1.2-3.4-.6 1.2-1.2 2.2-1.2 3.4-1.8 3.4-2 3.4-2 5.2zm4.8-12c.2-.4.4-1 .4-1.4-.2.4-.8.8-.4 1.4zm1.4-4.6l.2.2c.2 0 .2-.2.4-.2-.2-.2-.2-.2-.2-.4 0 .2-.2.4-.4.4zm53.2 98.6c-.4.8-1 1.2-1.4 1.6.6.4.8 0 1-.2.2-.4.8-.6.4-1.4zm4.6-3.6c2-1.8 4.4-3.6 6.4-5.6 1.4-1.2 2.6-2.6 3.8-4 1.6-.8 2.8-2.2 3.6-3.8.2-.2.4-.6.4-1 0 0 .2 0 .4.2 1-.6 1.8-1.6 2-3h.2c1-.4 1.6-1.4 2.2-2.4.8-.6 1.2-1.4 1.6-2.4.8-.6.8-.8.4-1.4 0-.2.2-.6.2-1-.8.6-1.4 1.4-2.2 2.2-3.4 4.4-7 8.6-10.6 12.6-2.6 2.8-5.2 5.8-8 8.6-.2.2-.8.4-.4 1zm.6 5.2c1.4-1.2 3.4-2.2 4.2-4.2 1-.6 1.8-1 2.6-2 8.4-8 15.6-16.8 21.8-26.8.6-.8.8-1.8 1.2-2.8l-1.8 2.2c-3 4.8-6.2 9-9.6 13.4-4 4.8-8 9.4-12.4 13.8-.6.8-1.4 1.2-1.8 2.2-1.8.8-3 2.6-4.2 4.2zm21-30.4c.4-.4.8-.8 1-1.2-.4.2-.8.6-1 1.2z"/><path d="M365.1 265.4l-3.6 3.4c-.4.4-.8.8-1.6 1v-.4c0 .2-.2.4-.4.4l-.4.6c-.2 0-.4.2-.4.4-.2 0-.4.2-.4.4l-1.2.6c-2.8 3-5.8 5.8-8.8 8.8-.2.2-.4.6-.6 1-.2 0-.4.2-.4.4-.2.2-.4.2-.4.4.2 0 .2-.2.4-.4.2 0 .2-.2.4-.4.8-.2 1.2-1 1.8-1.4.6-.8 1.2-1.6 2.2-2-.2.8-.8 1.2-1.4 1.6-3.2 3.6-6.6 7.2-10 10.8-2 2.4-4 4.6-6.2 6.8-3 3.6-6.4 6.8-9.8 9.8-.8.8-1.8 1.4-2.8 2-1.8.8-3.6.8-5.2-.6l-1-.6c-1.2-1-1.8-2.2-1.8-4 0-1.6.2-3 .6-4.6 1.4-6.2 3.8-12.2 6-18.2.6-2.2 1.4-4.2 2.2-6.4.2-.4.4-1 .4-1.4.2-.4 0-.6-.2-.8-.8-.2-.8-.8-.8-1.6v-2.4c0-.6-.6-.6-1-.6v.2c-.2 0-.2.2-.4.4v-.4c-.2 0-.4.2-.4.4h-.2c-.2.4-.4.8-.8 1.2 0 .2-.2.4-.4.4l-.4.6h.4c-.2 0-.2.2-.4.4-4.6 5.6-10 10.4-16.4 14-1.4.8-3 1.4-4.6 1.8-1.2.2-2.2.2-3.4-.2-2.4-.8-3.8-2.6-4.8-4.8-.4-.6-.4-1.4-.2-2.2.2-1.8.6-3.2 1.2-4.6.8-1.6 1.6-3 2.4-4.2 2.4-3.2 5.2-6.2 8.4-8.4 3.6-2.4 7.2-3.8 11.6-3.6 1.2 0 2.4.4 3.6.8 1.2.4 1.4.4 2.4-.8 1.4-2.2 3-4.2 4.4-6.4l.8.4v-.2c3.2-3.4 6-7.4 9.4-10.6.6-.8 1.4-1.6 2.2-2.2 1-.8 1.6-.8 2.6-.2.6.4 1 .6 1.4 1 1.8 1.2 2.2 2.6 1.6 4.6-1 2.8-1.8 5.6-3.2 8-.4.6-.6 1-.8 1.6l.6-.8c0 .6-.2 1.2-.8 1.8v-.8c-.2 1-.6 1.8-1 2.8l-.2.8 1 .6c0 .2-.2.6-.4.8-.2.6-.2 1-.4 1.4-.8 1-1.6 2.4-1.6 3.8-.8 1-1.4 2-1.4 3.2-.2.2-.4.4-.4.8v-.2c-.6 1-1 2-1.4 3.2-.4.6-.8 1.4-.8 2.2-.4.4-.4.8-.6 1.4h.2c-.6.6-.8 1.4-1 2.2-.2.2-.2.6-.4.8-.6.4-.8 1-1 1.6l-3 8.2c-.4.8-.8 1.8-.8 2.8-1.4 2.6-2.2 5.2-2.6 8-.6 1-.8 2.2-.8 3.4h-.2c1 .8 1 .8 1.4.4l1.8-1.4c3.2-3.4 6.6-7 10-10.4 3-3 6-6 9-8.8 3.2-3.4 6.6-6.6 10-9.8 3.2-3 6.2-6.2 9.6-9 .4-.2.6-.4.8-.6 1.2-1 1.4-1 2.6 0 1 .8 1 1.2.2 2zm-55.4 4.6l3.8-4.8c.6-.6 1-1.4 1.6-2.2.2-.2 0-.6-.4-.8h-1c-1.6 0-3.4.4-5 1.2-1.8.8-3.6 2-5.2 3.2-.6.4-1.2 1-2 1 .4-.8 1.4-1.2 1.8-2 .6-.2 1-.4 1.2-1-.6.2-1 .4-1.4.8-2.2 1.4-4.2 3.2-5.6 5.8-.6.2-1 1-1.2 1.6.6-.2 1-.8 1.2-1.6.8-.4 1.2-1 1.6-1.4.6-.6 1.2-1.4 2-1.8 0 .8-.6 1.4-1 2-1.8 1.4-3 3.2-4.2 5.2-1.2 1.8-1.6 4-2 6-.2.8.4 1.2 1.2 1 1.2-.6 2.6-1.2 3.8-2.2 4-3 7.6-6.4 10.8-10zm-14.4 4c.6-.2.8-.6 1-1-.4.2-.6.6-1 1zm.6-5h.4v-.4h.4v.4l.4-.4c.2-.2.2-.4.4-.4h-.4v.4h-.4v-.4c-.2 0-.2.2-.4.4-.2 0-.4.2-.4.4zm.8-1h.4v-.2c-.2 0-.2.2-.4.2zm.4-.4h.4v.4c.2 0 .4-.2.4-.4h-.4v-.4c0 .2-.2.4-.4.4zm.6-.4h.2v-.4c0 .2-.2.2-.2.4zm.4.4l.4-.4c1-.8 2.2-1.6 2.6-3 .2 0 .2-.2.4-.4.4 0 .6-.2.8-.4-.2 0-.6 0-.8.4l-.6.4c-1.2.4-2.2 1.4-2.8 2.6 0 .2.2.2.4.4h-.4v.4zm10.4 7.6v.2c.2 0 .2-.2.4-.2h-.4c0-.2.2-.4.4-.6v.4c.2 0 .2-.2.4-.4s.4-.2.4-.4h-.4c.2-.2.4-.2.4-.4 0 .2 0 .2.2.4 0-.2.2-.2.2-.4h-.4c.2-.2.4-.4.6-.4v.4c0-.2.2-.4.4-.4.8-.6 1.4-1.2 1.6-2.2h-.4c.2-.2.4-.4.6-.4v.4c.2 0 .2-.2.4-.4l.4-.4h-.4c0-.2.2-.4.4-.6v.4c.2 0 .2-.2.4-.4.4-.2.8-.8.8-1.2l.4-.4h-.4v.4h-.4c.2-.2.4-.4.4-.6.2 0 .4-.2.6-.4v.4l.4-.4h-.4v-.8c.2 0 .2-.2.4-.4h.4v.8c.4-.4.8-.8.8-1.2h-.4c.2-.2.2-.4.4-.4v.2c.2 0 .4-.2.6-.2h-.6v-1c-.6.4-1 1-1.2 1.8-.2 0-.4.2-.6.4-.6.4-1 1-1.4 1.6 0 .2-.2.4-.4.4-1 1-1.8 2-2.6 3-1.4 1.6-3 2.8-4.2 4.6.6 0 1.2-.6 1.8-.8 0-.2.2-.4.4-.4zm-.2 4c-.4 0-.8.2-1 .6.4 0 .8-.4 1-.6zm12-12.8c.2-.2.2-.4 0-.6 0 0-.4 0-.4.2l-.8.8c-2.4 3.2-5.2 6.2-8 9.2l-1 1.2c0 .2-.2.2-.4.4-.4.2-.6.4-.8 1 .4-.2.8-.4 1-.8l.4-.4c.8-.4 1.2-.8 1.8-1.4 2.8-2.8 5.4-6 8-9.2.2-.2.2-.2.2-.4zm-11 7.8v.4h-.4c.2 0 .2-.2.4-.4zm3.6-3.8v.4h-.4c0-.2.2-.4.4-.4zm.8-1.4v.8h-.4c0-.2 0-.4.2-.6l.2-.2zm.2-.4h.2c0 .2-.2.2-.4.4 0-.2 0-.2.2-.4zm3.4-4.4h.4c0-.2.2-.4.4-.4-.6-.4-.8-.4-.8.4zm1.2 6.2h.4s-.2.2-.4.2v-.2zm5.8-9.6c1-1.2 2-2.4 2.8-3.8h-.2l-.6.6c.2-.2.2-.2.4-.2-.2.4-.6.6-1 .8l-.4.6s0 .2-.2.4v-.2l-.6.6c-.2.4-.2.8-.4 1l-.8.8c0 .2-.2.2-.2.2-.4.4-.6 1-1 1.4v.4c.2.2.4 0 .4 0 .8-.8 1.4-1.6 1.8-2.6zm-1.8 29c.4-.6.8-1.2.8-2-.6.6-.6 1.2-.8 2zm5.6-32.6l-4.6 6.4c-.6 1-.6 2-.2 3.4.2.8.2 1.6.4 2.4 0 .2-.2.6.4.6.2-.2.4-.4.4-.6.6-1.2 4.8-11.4 3.6-12.2zm-2.6 24.6v.2c.2 0 .2-.2 0-.2zm1.4-24.8c0 .2-.2.2-.2.4 0-.2 0-.2.2-.4zm.6-6c.4-.2 1-.4 1.2-1l.4-.6c.6 0 1-.4 1.2-.8 0-.2.2-.4.4-.6v.4c.2-.2.2-.4.4-.6.6-.2 1-.6 1.2-1.2l.4-.6c-.2 0-.4.2-.4.2-.2-.2-.2-.4-.2-.6h.4v-.4c-.2 0-.2.2-.4.4-.8.4-1.4 1-1.8 1.8-.6.4-1.2 1-1.4 1.8-.2.2-.4.4-.4.6l-1 1.2zm2.4 20.2c-.6.6-.8 1.2-1 2 .6-.6.8-1.2 1-2zm.8-23.6c.2.2.2.2.4.2-.2 0-.2 0-.4.2v-.4zm0 25v-.2h.2c-.2 0-.2.2-.2.2zm1.4-6.6c-.4.4-.4.8-.4 1.2.2-.4.2-.8.4-1.2zm.4-21c.6-.2 1-.6 1.2-1.2.2 0 .4-.2.4-.2l.2-.2c-.2-.2-.2-.2-.4 0 0 .2-.2.2-.2.4-.6.4-.8.8-1.2 1.2zm1.2 17.2c0 .2-.2.2-.4.4 0 .2 0 .4.2.4l.2-.2v-.6zm5.2 25.2c-1.8 1.4-3.2 3.2-4.8 5-.4.2-.4.6-.6 1 1.8-1.4 3.4-3.4 5-5.2.2-.2.4-.4.4-.8zm-.8 4.4c-.2 0-.2.2-.4.4-1.6 1-3 2.8-3.8 4.2 1.6-1.2 2.8-2.6 3.8-4.2.2-.2.4-.2.4-.4zm-3-32.8c-.6.6-.8 1.2-.8 2 .4-.6.8-1.2.8-2zm1.4 1.2c-.2-.2-.2-.6-.2-.8h.2v.8zm2 31l-.4.4c.2 0 .4-.2.4-.4zm.4-.4c-.2.2-.2.2-.2.4 0-.2.2-.2.2-.4zm7.6-7.8c-.4 0-.4.2-.6.4l-.4.4c-.2 0-.2.2-.4.4s-.4.2-.4.4l-.4.4c-2 1.6-3.6 3.4-5 5.2-.2.2-.2.4-.2.6 2-1.6 3.8-3.4 5.2-5.6.2-.2.4-.2.4-.4l.4-.4.6-.6.4-.4c.2 0 .2-.2.4-.4zm-5.2 2c.2 0 .2 0 .2-.2l-.2.2zm.8-.8c1.4-.6 2.4-1.6 3-3-1.2.8-2.2 1.8-3 3zm7.8-7.8c-1.4 1.2-2.8 2.4-3.8 3.8 1.6-.8 3-2 3.8-3.8zm1.8 1.8c0-.2.2-.4.4-.6v.2c-.2 0-.2.2-.4.4zm.4-.6c1.2-1.4 2.4-2.6 3.8-3.8-.8 1.6-2 3-3.8 3.8zm4.8-7.6c-1.8.8-3 2.2-4.2 3.6.8-.2 1.4-.6 2-1.2l2.2-2.4zm-.4 3.4c-.2.2-.4.2-.4.4 0-.2.2-.4.4-.4zm1.8-2.2h.4c-.6 1-1.2 1.6-2.2 2l1.8-2zm.4 0v-.4h.4c-.2 0-.4.2-.4.4zm.4-.6v-.2h.4c-.2 0-.2.2-.4.2zm.4-.8h.4c-.2.2-.2.4-.4.4v-.4zm3.2-5.6c-1 .6-1.6 1.4-2.2 2 1.4-.6 1.4-.6 2.2-2z"/><path d="M439.7 267h1c-.2.4-.6.8-1 1-.8.6-1.6 1-2.6 1.6-4 1.8-7.8 4.2-11.6 6.4l-2.6 1.4c-3.8 2.4-7.8 4.6-11.6 7-2.4 1.4-4.6 2.6-7 3.8-1.4.4-2.6 1-4 1.2-3.2.8-5.8 0-7.8-2.6-.6-.8-1.2-1.4-1.6-2.2-1-1.6-1.6-3-1-5 .6-2.4 1.4-4.8 2.6-7l1.2-3.2c.2-.6-.2-1-1-.8-.6.2-1.4.4-2.2.8-3 1.4-6 3-9 4.6-1.6 1.2-3.2 2.2-4.6 3-.4.2-.8.6-1 .8-1 .6-2 1.4-3 2.2h.2c-3.2 2.6-6.4 5.2-9.8 7.6-1.2 1-2.4 1.8-4 2.2-1.8 1-5.6.2-6.6-1.6l-1-1.2c-1.4-1.4-1.8-2.8-1.2-4.6.6-2.6 1.8-5.2 3-7.4 1.2-2 2.2-3.8 3.2-5.8 2.6-4.4 5.6-8.8 8.8-13 2.4-3.2 5.2-6.4 8-9.6 1.2-1.2 2.6-2.4 4-3.6.6-.4 1-.6 1.6.2.2.4 1 0 1 .8 0 .6.2 1.2-.2 2l-1.2 1.6c-2.8 4.2-5.6 8-8.4 12.2-.6.8-1 1.6-1.2 2.4-2 2.4-3.6 5-5 7.8 0 .2 0 .4-.2.8s-.4.4-.6.8v.6c-.2.4-.6.8-.8 1.2-.4.4-.6.8-.4 1.4-.4.4-.6.8-.8 1.2-1 .4-1.2 1.2-1 2.2.2.4.6.6 1 .4.8-.4 1.4-1.2 2.4-1.8 4.4-3.8 9-7.2 14.2-10 3-1.6 6.2-3.4 9.6-4.6 1.2-.6 2.6-1.2 3.8-1.4 2.6-.8 4.6-.2 6.6 1.4 1.2 1.2 2.6 2.6 3.4 4 .6 1.4.8 2.6.4 4-.2 2.2-1 4.2-1.8 6.2-.6 1.4-1 3-1.8 4.6 0 .2 0 .4.2.6h.8c.6-.2 1.2-.6 1.8-.8 3-1.6 6-3 8.6-4.4 5.2-2.6 10.4-5 15.2-7.8 2-1 4.2-1.8 6-2.6 1-.6 2-1 2.8-1.4.8-.4 1.4-.6 2-1 2-.8 3.6 0 4.8 1.4.4.2.4.6.2 1-.2.2-.8.4-.8 1zm-78.4 15.2c1-.4 1.6-1 2.2-1.8h.6c.2 0 .2.2.2.4 0-.2.2-.4.4-.4l.4-.4h-.4l.4-.6c0 .2 0 .4.2.6 0-.2.4-.4.6-.6h-.8c.2-.4.8-.6 1.4-.8v.4c.2 0 .2-.2.2-.4h-.2c.2-.2.2-.4.2-.4.2-.2.4-.4.6-.4v.4h-.4v.4c0-.2.2-.2.4-.4.6-.2.8-.4 1.2-.8h-.8c.2-.6.8-1 1.4-1v.4c.2-.2.2-.4.2-.4h-.2c.2 0 .2-.2.4-.4.2-.4.6-.8 1-1 .2-.2.4-.2.8-.4.4-.4.6-.8 1.2-.8v.4l.4-.4h-.4c.2 0 .4-.2.4-.4l.6-.8h.8c.2-.2.2-.6.4-1 .6 0 1-.4 1.2-.8.6 0 1-.4 1.2-.8-.4 0-.8.2-1.2.8-.4 0-1 .4-1.4.8-.4 0-1 .4-1.4.8-1 .4-2 1.4-2.8 2.2-2.6 1.6-5 3.4-7 5.6-.8.4-1.6 1-2 1.8l-.6.6c.2-.2.4-.4.6-.4zm19.4-9.6c-1 0-1.6.4-2.2 1.2-.4 0-1 .2-1.4.6-4.6 2.8-8.6 6.4-12.8 9.8-.2.2-.2.6-.4 1-.6 0-1 .4-1.2.6.4 0 .8-.2 1.2-.6 1.2-.4 2-1.4 2.8-2.2 3.8-2.8 7.4-6 11.4-8.6l.4-.6c1 0 1.6-.6 2.2-1.2zm-16.6 7.8c.2-.2.4-.2.6-.4v.4h-.6zm9-7v.4l.6-.4h-.6zm40.2 7.8c-.6.2-1 .4-1.2.8.4-.2.8-.4 1.2-.8zm2-1.2c-.4.2-.8.4-1.2.8-.2.2-.6.2-.6.4l.6-.4c.6-.2 1-.4 1.2-.8zm.8-.6c0 .2-.4.4-.6.4.4 0 .6 0 .6-.4zm2.4-1.2c-.6.2-1 .4-1.2.8.4-.2 1-.2 1.2-.8zm.8-.4c-.4 0-.6.2-.6.2s.4 0 .6-.2zm.8-4.4l-.6.4c.2 0 .4 0 .6-.4zm0 4c-.2 0-.4.2-.6.4l.6-.4zm2.2-1.4c-.8.4-1.6.4-2 1.4.8-.4 1.4-.8 2-1.4zm1-.4c-.4 0-.8.2-.8.4.2 0 .4-.2.8-.4zm.6-.4s-.4 0-.6.2c.4 0 .6-.2.6-.2zm2.4-1.4c-.2.2-.6.2-.8.4.4 0 .6-.2.8-.4zm.8-.2c-.2 0-.6 0-.6.2 0 0 .4-.2.6-.2zm4-2.4c-.4 0-.6.2-.8.4-1 .2-1.6.6-2.2 1.4.8-.4 1.6-.4 2.2-1.4.2-.2.4-.2.8-.4zm3.8-2.2c-.2 0-.2.2-.4.2l-.2.2c0 .2.2.2.4 0 0-.2 0-.2.2-.4z"/><path d="M486.3 260.4c0 .6-.2 1-.4 1.6 0 .2-.2.4-.4.6-3.2 2.6-6.6 5.2-10 7.8-4.6 3.6-9.4 7.2-13.8 10.8-7.8 5.8-15.4 11.8-23.2 17.6-2.4 1.8-4.8 3.4-7.4 4.8-1.2.6-2.2 1.2-3.6 1.4-1.6.2-2.8 0-3.8-1l-1-.6c-1.8-1.2-2.6-3-2.2-5.4.4-3 .8-6.2 2.2-9 .8-1.2 1.4-2.4 1.8-3.8 1.8-4.2 4.2-8.4 6.6-12.4 2.4-4.4 4.8-8.6 7.4-12.8 2.8-4 5.6-8.2 8.8-12.2.4-.4.8-1 1.6-1.2 2.2 1.2 2.6 2 1.6 4.4-.8 2.4-2 4.8-3.4 7.2-1 1.6-1.8 3.2-2.6 4.8-.2.2-.4.6-.4.8h.4c-.4.4-.6.6-.6 1-.8.6-1.2 1.2-1.8 2-.6 1.6-1.6 3.2-2.6 4.8-.2.6-.4 1.2-.8 1.8-.2.4-.4.6-.4.8.2.2.2.2.4.2h-.4c-1.2 1-1.8 2.4-2.2 3.8-.6.8-1.4 1.8-1.4 3-.8.8-1.4 2-1.6 3-1 1.4-1.8 2.6-2 4.2 0 .2 0 .4-.4.6-1.8 2.4-2.4 5.2-3.4 7.8-.2.8-.2 1.6-.2 2.4 0 .4.6.6 1 .6.4-.2.8-.4 1-.6l3.8-2.4c1.8-1.2 3.4-2.6 5.2-3.8 4.2-3.2 8.6-6.4 12.8-9.4 3.2-2.4 6.4-4.4 9.4-6.8 4.6-3.4 9.4-6.8 14-10.4l8.4-6c1-.8 1.8-1 3-.4l.6.4zm-57.2 28.8v.2-.2zm1-2.2c.4-.4.4-.8.6-1.2.2-.4.2-.8.4-1v-.2c-.2.4-.2.8-.4 1.2-.2.4-.2.6-.6 1v.2zm2-4.2c.2 0 .2 0 .4-.2 0 0-.2 0-.2-.2 0 .2-.2.2-.2.4zm2.4-4c0-.4.2-.6.2-1 0 .2-.2.6-.2 1zm22.8-42.2c-.6-1-1.4-1.8-1-3 .2-1 .6-1.8 1-2.6 2-3.4 4.6-6.6 7.2-9.6.6-.8 1.4-1.4 2.2-2 .8-.6 1.6-.6 2.4 0 .6.6 1.2 1 1.8 1.4-.6.8-1 1.4-1.6 2-.8.4-1.4.8-1.8 1.8-.4.2-1 .4-1 1.4.4-.8.6-1 1.2-1.4.4-.6 1-1.2 1.6-1.8.8-.2 1.2-.4 2.2-.6-.6.6-.6.8-.8 1-1.8 1-3.4 2.6-4.6 4.4-1.4 2-2.8 4-3.8 6.2-.8 1.2-1.6 2.4-2.6 3.4-1 .2-1.8.2-2.4-.6zm9.4-15h.2c.4.2 1-.2 1-.8h-.2c-.4-.2-.6-.2-.8.2-.2.2-.2.4-.2.6z"/><path d="M562.9 105c-.6 2.2-1.6 4.4-2.6 6.6-1 2.4-2.2 4.8-3.4 7.2l-3 6c-.6 1.6-1.4 3-2.2 4.6l-1.8 3.6c-2.4 4.6-4.8 9-6.8 13.6 0 .4-.2.6-.4 1-.2.2-.2.6-.4.8-.2.4-.4.6-.4 1v-.2c-1.4 2-2.4 4-3 6.2-.2.4-.4.6-.6.8-.8 1.2-1.4 2.2-1.6 3.6-.2.2-.2.6-.4.8-.4.6-.8.8-1.2 1.4-1 2-2 4.2-3.2 6.4v.6c-.2.2-.4.6-.6.8-.8 1-1.6 2.2-1.8 3.6l-.4.4c-1 2.2-2.2 4.6-3.4 7-.2.2-.4.6-.4.8l-.6.8c-.6.8-1.2 1.8-1.2 2.8-2 2.8-3.6 5.8-4.8 9l-.4 1c-.2.2-.4.6-.4.8l-.6.8h.2l-.6 1c-.4.6-1 1.4-1.4 2l-6.6 13.2c-.6 1.4-1.6 2.8-2 4.4-.2.2-.2.6-.4.8-.2.6-.6 1.2-.8 1.8l-.6.8c-.2.6-.6 1.2-.8 1.8-.2.4-.2.6-.4.8.2 0 .2 0 .4.2h-.4v-.2l-1 1.8h.2c-.2.4-.4.6-.4.8 0 0 .2.2.4.2h-.6v-.2c-1 1.6-1.6 3.2-2.2 4.8h.2c-.2.4-.4.8-.6 1 0 .2-.2.6-.4.8l-.4 1c-.2.2-.4.6-.4.8-.4.4-.8 1-1 1.4-1.4 3.4-2.8 6.6-4.4 9.8-.2.4-.2 1-.4 1.4 0 .4-.2.6-.4 1h.4c0 .2-.2.6-.4.8-1.2 1.2-2 2.6-2.4 4.2-.2.4 0 .8.2 1 .2-.2.4-.6.4-1 0 .4-.2.8-.2 1.2h-.2c-.2.2-.4.2-.6.4l-.6 1.6c-.2.4-.4.6-.6 1l.2-.2s.2 0 .4.2h-.4c-.4.8-.6 1.4-1 2l-.4 1c-.8 1-1.2 2.2-1.4 3.4-1 1.8-1.8 3.6-2 5.6-.8.6-.8 1.2-1 2.2.2 0 .4.2.6.2h-.6v-.2c-.8 2.2-1.4 4.2-2.2 6.2-.2.4-.4.8 0 1.4l-.4.6c-.6.6-.8 1.2-.8 1.8-1 2.2-1.8 4.6-2.2 7-.2.4-.2 1-.4 1.4-.2.6-.4 1.2-.4 1.8v-.2c-.2.6-.4 1-.4 1.4-.4.4-.6 1-.8 1.6-.8 3-1.8 6.2-2.2 9.2l-.6 4.6c-.4 2-.4 3.8-.2 5.8 0 .6.2 1.4.8 1.8.4 0 .8 0 1.2-.2 1-.8 2.2-1.4 3.2-2.2 2.2-1.8 4.4-3.8 6.6-5.8 3.8-3.6 7.6-7.2 11.4-11 3-2.6 5.8-5.6 8.6-8.4 2.2-2.2 4.6-4.6 7-6.8l10.8-9.8c3.2-2.8 6.4-5.6 9.6-8.2.2-.2.4-.4.8-.6 1-1 2.2-1.4 3.6-.2.6.6.4 1.4-.4 2-1.4 1.2-2.8 2.6-4.4 3.8-7.8 7.2-15.4 14.6-22.8 22.2l-6 6.2c-2.4 2.4-4.6 4.8-7 7-4.4 4-8.6 8.2-13.4 12-1 .8-2.2 1.6-3.4 2.4-1 .6-2.2 1-3.2 1.4-3.8 1-8-1.6-9-5.4-.6-2.8-.4-5.6 0-8.2.4-5.4 1.4-10.4 2.8-15.4l3.6-12.6c.2-1.2.6-2.2.8-3.2.8-1.8 1.2-3.6 2-5.4.8-1.6 1.2-3.4 1.8-5 1.2-3.4 2.6-6.8 3.8-10.2 1-2.4 1.8-4.8 3-7.2 1-1.8 1.6-4 2.6-6 2.4-5.4 5-10.8 7.6-16.2 2-4.2 4.2-8.4 6.4-12.6 1-2 1.8-4 2.8-6l4.6-8.4 3.6-7.2c1.6-3 3.2-6 4.6-9l8.4-15.2c2.6-4.6 4.8-9.4 7.4-14.2 1.2-2.4 2.6-4.6 3.8-7l2.4-4.4c1.8-4 4-7.6 6-11.4 4.2-7.4 8.6-14.6 13.2-21.8.4-.4.6-1 1-1.4 1.2-1.6 2.4-3 3.4-4.4.6-.2.8.2 1 .6.2.8.2 1.8 0 2.6zm-37.6 73.6c-.8.4-1 1.2-1.4 1.8-2 4-4.2 8-6.2 11.8-3.2 6.2-6.4 12.2-9.4 18.2-3.4 7-7 14-10.4 21.2-3 6.2-5.8 12.4-8.6 18.8-3.2 7.4-6.2 15-8.8 22.8-2.2 6.2-4.2 12.4-6 18.8l-.4 2.2c-.4 1-.8 2-.8 3-.2.2-.4.6 0 1.2v-1.2c.8-1 1-2 .8-3 .8-1 .8-2 1.2-3 2.4-7.8 4.8-15.4 7.8-23 3.6-9.8 7.8-19.6 12.2-29.2 2.6-5.4 5-10.8 7.6-16l7.8-15.6 13.8-27c.4-.6.6-1.2.8-1.8zm-46.4 88c.2-.4.8-.6.4-1.2-.2.4-.2.8-.4 1.2zm1.8-4.8c.6-.6.8-1.2 1-2-.4.6-.6 1.4-1 2zm0 17.2v-1.4c.2 0 .4 0 .6.2l-.6 1.2zm3-24.8c0 .2.2.2.2.2.2-.4.2-.8.4-1.2-.2.4-.4.8-.6 1zm1-2l.8-.8v-1.2c.8-.6.8-1.4 1-2.2-.6.6-1 1.2-1 2.2-.6.4-.8 1.2-.8 2zm3 8v-1c.2 0 .4.2.6.2-.2.2-.4.4-.6.8zm.4-16.2c.4-.6.8-1 1-1.6l1.2-1.8v-1.4c-1.2 1.4-1.8 3-2.2 4.8zm.2 15.4v-.2.2zm4.2-25c-.8.8-1.2 1.6-1.2 2.8.4-.6.8-1 1.2-1.4v-1.4zm.4 13.6v-1c.2 0 .4 0 .6.2-.2.2-.4.4-.6.8zm.6-.8v-.2.2zm.4-15.4l1.2-1.8c.2-.2.2-.4.4-.6v.6h.2v-.8l-.2.2v-.2c.2-.8.4-1.4.6-2.2.2-.2.4-.2.8-.4v-1.4c-.2.6-.6 1.2-.8 1.8-1.2 1.4-1.8 3-2.2 4.8zm5.2 1.8h.4c-.2.2-.2.4-.4.8v-.8zm.4-1h.4c0 .4-.2.6-.4 1v-1zm.4-13.6c.6-.4.8-.8 1-1.6-.6.4-1 .8-1 1.6zm.4 12.8c0-.2 0-.6.2-1v1c-.2.2-.4.6-.6.8v-.8h.4zm5.4-10.8c-.2 0-.4-.2-.6-.2h.6v.2zm7.8-28.6c.2-.2.2-.6.4-.8-.2.2-.4.6-.4.8zm3.4 6.2v-.8h.6c-.2.2-.4.4-.6.8zm1-1.6c-.2.2-.4.4-.4.8v-.8h.4zm0-1h.4c-.2.2-.4.6-.4.8v-.8zm.4 0v-.8h.4c-.2.2-.2.4-.4.8zm7-13.6v-.8h.4c-.2.2-.2.6-.4.8zm.4-4.8c.4-.4.8-1 .8-1.4-.6.4-.8.8-.8 1.4zm4-4.2h-.2l.2-.2v.2zm-.2.8l.2-.2v.2h-.2zm1.4-6.6c-.8.6-1 1.4-1.2 2 .8-.4 1-1 1.2-2zm-1.2 6.4v-.6h.4c-.2.2-.4.4-.4.6zm3.4-10.6c-.2.6-.6 1-.8 1.6.6-.4.6-1 .8-1.6zm1.2-2.6c-.4.6-.8 1-.8 1.6.6-.4.8-.8.8-1.6zM759.9 124c-.4 7.2-1 14.6-2.6 22l-1 6.4c-.4 1.6-.8 3-1.4 4.6l.2.2c-.6 1.6-1.2 3-1.6 4.6-.2.2-.2.6-.2.8-.4 1.4-.2 3-1 4.4-.6 1.6-1 3.2-1.6 4.6-2.6 8.8-5.6 17.6-9 26.2-2.8 7.6-6 15-9.2 22.4l-4.8 10.4c-.4.8-.6 1.4-.8 2.2-.8 1-1.4 2-1.6 3.2-2.4 4.2-5 8.6-6.8 13.2h.2c-1.2 1.2-1.4 3-2.2 4.4l-2.6 4.2c-.8 1.4-1.2 3-2 4.4-.8 1.4-1.4 2.8-2.6 4-.4.4-.8 1-1 1.4-2 4.2-4.4 8.2-7 12.2-.4.6-.8 1.4-.6 2.2.4.2 1 .4 1.6.2 5.4 0 9.6 3.2-.2 3.2-4.4 0-4.2-.2-7 3.8-5.2 8-10.6 16-16.4 23.6-6 8-12.4 16-19 23.6-9.4 10.8-19.4 21.2-30.6 30.2-5 4.2-10.2 8-15.8 11.2-4.4 2.6-9 4.6-13.6 6-9 2.8-16.8 1.8-24-2.2-4.2-2.4-7.2-5.8-9.4-9.8-3-5.4-4.4-11.2-5.4-17.6-1-7.2-1.2-14.8-.6-22.4.4-4.4 1-9 1.6-13.4 1.2-8.4 3.4-17 5.6-25.4 1.6-5.6 3.6-11 5.4-16.6l2.4-6.6c.8-2.4.8-2.6-1.2-3.6l-4.8-3c-7.6-5-14.2-11-18.4-19.4-1-2.2-2-4.6-2.6-7-2-7.4-2.2-15.2-1-23.4 1-6.6 2.6-13.2 4.8-19.8 1.2-3.4 2.8-7 4.2-10.4 1.6-4 3.6-8 5.6-11.8 2.6-4.6 5-9.2 8-13.6 1.4-2 2.6-4.2 4-6.2 3.6-5.8 7.4-11.2 11.6-16.6 4-5 7.8-10 12.2-14.8 2.6-2.8 5-5.4 7.4-8.2 4.4-4.8 9.2-9.2 14-13.6 3-2.8 6-5.4 9.2-8 4-3.4 8-6.8 12.2-10 5-3.6 10-6.8 15.2-10 8.8-5.2 17.8-9.6 27.2-12.8 5.4-1.8 10.8-3 16.2-3.6 10-1.2 19.4-.4 28.2 3.2 7 2.8 13.2 6.6 18 12.2 3 3.4 5.4 7 7.4 11.2 3.2 7 5.2 14.4 6.4 22.2 1 7 1.2 14 .8 21.2zm-10-18.6c-.4-6.2-1.6-12-3.2-17.6-1.8-5.8-4.2-11.2-7.8-16-2.6-3.6-6-6.6-10.2-8.6-6.8-3.2-14.2-4.2-22.2-3.4-8.4.8-16.8 3-25 6.6-10.2 4.4-19.8 10-29 16.4-6 4.2-11.6 8.6-17.2 13.4-3 2.4-5.8 5-8.6 7.6-2.8 2.6-5.4 5.4-8.2 8-4.2 3.8-7.6 8-11.2 12-3.4 3.8-6.4 7.8-9.8 11.8-1 1.2-2 2.6-3.2 3.6-1.4 1.2-2.4 2.6-3.2 4-1 1.2-2 2.4-2.8 3.8-.6.8-1.2 1.6-1.6 2.4-.6.8-1 1.6-1.6 2.2-.2.4-.4.8-.8 1.2-.6.6-1.2 1.2-1.4 2.2v-.2l-1.4 1.8c-4.6 7-8.8 14.2-12.6 21.6-.6 1.6-1.2 3.2-2 4.8-1.6 2.6-3 5.2-3.4 8-1 1-1.2 2-1.6 3.2l-1.2 3.6c-1 2.4-1.6 4.6-1.8 6.8 0 .8-.2 1.6-.6 2.2-.4.8-.6 1.8-.8 2.6l-.6 3.6c-.8 5.4-1.2 10.8-1 16 .2 6.8 1.8 12.8 5 18.4 3.6 6.2 8.8 11 15.2 14.6.4.2 1 .2 1.4.4 1.2-1 1.6-2.2 2-3.4.8-2 1.8-4 2.6-6 1.2-2.4 2.2-4.8 3.4-7.2 1.6-3.2 3-6.4 4.6-9.6l1.8-3.4c2.6-6 6-11.6 9.4-17.2 3.8-6.4 7.8-12.6 12.2-18.8 5.8-7.8 12-15.4 18.8-22.4 3-3.2 6.2-6 9.8-8.4 1.2-.8 2.2-1.6 3.6-1.8.6-.2 1.4-.2 1.6.8-1.4 1.4-2.8 3-4.6 4.4l-1.2 1.4c0-.4.2-.6.4-1-.6.4-1.2 1-1.8 1.6l1.4-.6c-.6 1.2-1.6 2-2.6 2.6.4-.6.6-1 .8-1.6l-1.8 1.8c.2.2.4.2.6.4-.8 1.4-1.8 2.6-3.2 3.4.2-.4.2-.8.4-1.2l-1.6 1.8c-.4.4-1 1-1.4 1.6-.4.4-1 1-1.4 1.6-.4.6-1 1-1.4 1.6l-1.2 1.2c-11.6 14.2-20.8 29.2-29 45l-.6 2.2c1-1 1.4-2.2 2-3.2 3-5.8 6.2-11.4 9.6-17 1.4-2.2 3-4.4 4.6-6.8-.4 1-.8 2-1.4 3-1 1.6-2 3-2.8 4.6-3.8 6.4-7.6 13-10.8 19.4-2 3.8-3.8 7.6-5.6 11.2-1.4 3-2.6 6-4 9-.8 1.4-1.2 2.8-1.4 4.4v-.2c-1 1.4-1.6 3-2 4.4l.2.2c-.4.6-.8 1.4-1 2-.4.8-.8 1.4-1 2.2-.2 1.2 0 1.8 1 2.4.6.2 1.4.4 2.2.8 9.8 3.2 20 5.6 30.2 7.4 5.4 1 10.6 2 15.8 2.6 5.6 1 11.4 1.8 17 2.4l15 1.2c6.2.4 12.4.8 18.8 1 3.8.2 3.8.6 6.2-3.6 4.4-7.4 8.8-14.8 13-22.4 2.4-4.4 5-8.8 7.2-13.2l1.8-4c1.8-3.6 3.6-7.4 5.4-11l3.6-7.8c.6-1.4 1.2-3 1.8-4.4 1.8-4.4 3.8-8.8 5.6-13.2 1.6-3.6 3-7.4 4.4-11 1.4-4 3-8.2 4.2-12.4 2.2-7.4 4.6-15 6.4-22.6 1.4-6.2 2.6-12.4 3.6-18.6.6-4.2.8-8.4 1.2-12.4.8-7 .4-13.6 0-20.2zM563.3 192c0-.4.2-.6.2-1v.8s0 .2-.2.2zm2-10.4s.2.2.2.4c.2-.2.2-.4.4-.4l-.2-.2s-.2.2-.4.2zm1.8 1.4h-.2c.2 0 .2-.2.2-.2v.2zm0 0H567.7c-.4.4-.6.4-.6 0zm2.4-9.8c-.6.8-1 1.8-1.2 2.8.6-.8 1.2-1.4 1.6-2.4 1.6-2.4 2.8-5 4.4-7.6 3.2-5.2 6.6-10.2 10-15.2 9.2-13.4 19.6-26.2 31-38 .8-.8 1.8-1.8 2.6-3.4-1.4 1-2.2 1.8-3 2.6-9 9.2-17.2 18.8-24.8 29-7.8 10.2-14.8 21-20.6 32.2zm-1.2-7.4c.2-.4.6-.6.8-1-.2.2-.6.6-.8 1zm116.8 119.6c-.4-.2-.6-.2-.8-.2l-15-.6c-1.8 0-3.8-.2-5.6-.2-3.2-.4-6.2-.6-9.2-.8-2.6-.2-5.4-.4-8-.8-5.4-.6-10.8-1.2-16.2-2-6.2-1-12.4-1.8-18.4-3-6.4-1.2-12.6-2.6-18.6-4.4l-7.8-2.4c-1.8-.4-2.6-.2-3.2 1.8-.8 1.8-1.2 3.6-2 5.4-2.6 7.8-5 15.6-7 23.6-1 4.4-2 8.8-3.2 15-.2 2.4-.8 6.4-1.2 10.4-.6 4.4-.4 8.8-.6 13.2 0 4.2.6 8.4 1 12.4.2 3.4 1.2 6.8 2 10 1.2 5.2 3.4 9.6 6.8 13.4 1.8 1.8 3.6 3.4 6 4.2 2 1 4.2 1.2 6.6.6 4.8-.8 9.4-2.6 13.8-5.2 6.6-3.6 12.8-8 18.6-13.2 5.2-4.4 10-9 14.8-13.8 6.4-6.4 12.4-13 18-20 2.8-3.6 5.8-7.2 8.6-11 3.4-4.2 6.6-8.6 9.8-13l9.2-13.2c.8-1.2 1.8-2.8 2.6-4.2s.6-2-1-2zM569.5 313c1.4-4.6 2.8-10.4 2.8-13-1 4.4-2.4 8.6-2.8 13zm1.2-151c.6-.8 1.4-1.6 1.6-2.6-1 .8-1.2 1.6-1.6 2.6zm3-4.8l2-2.2c1 .2 1 .2 1.4-1v-.2c.2-.2.4-.6.6-1h.2v-.2c.2-.2.4-.6.4-.8h.2c0-.2 0-.2.2-.4s.4-.4.6-.8l.6-1h.2v-.2c2.2-2 3.6-4.4 5-7 1-1.2 2-2.4 3-3.8l4.2-5.4c.8-1 1.4-1.8 2.2-2.8.4-.6.8-1.2 1.2-1.6.6-.6 1-1.2 1.4-1.8.4-.6 1-1 1.4-1.6.4-.6 1-1 1.4-1.6.4-.6 1-1.2 1.6-1.8-.4 0-.6 0-.8.2.6-.6 1-1.2 1.4-1.8 0 .4-.2.8-.2 1.2l.6-1.6h.6c.2-.4.6-.8 1-1.2.6-.6 1.2-1 1.6-1.6 1-1.4 2-2.8 2.8-4.2l2.2-2.2c1-1 1-1 1.6-2.4l-2 2c-.6.8-1.4 1.4-2 2.2-2 2-3.8 3.8-5.6 5.8-10.2 11-19 22.8-27 35.2-.8 1-1.4 2.4-2 3.6zm3.6-4.4c0 .4-.2.6-.2 1v.2h-.6l.8-1.2zm1.4-2.2v.8l-.2.2s0 .2-.2.2h-.2c-.2.2-.2.6-.2.8l-.2.2h-.4l.6-1c.4-.4.6-.8.8-1.2zm.8-1.2c0 .4-.2.8-.2 1.2h-.6l.8-1.2zm.6-1v1l-.2.2h-.4l.6-1.2zm1.6-2.2c-.2.4-.4.6-.8 1 .2-.4.6-.8.8-1zm5.8 114v-.2.2zm.4-121.8h-.2c.2-.4.2-.6.4-1 0 .2-.2.6-.2 1zm2.4 111l.2-.2v-.4c0 .2 0 .4-.2.4v.4-.2zm8-16.6c-.6.8-1.2 1.6-1.6 2.4-1 1.6-1.6 3.2-2.4 4.8l-1.2 3.2c1.4-2.2 4.2-7.8 5.2-10.4zm-4-102.6h-.4l.6-.8-.2.8zm1.2-1.6h-.2c.2-.2.4-.6.6-1 0 .4-.2.8-.2 1h-.2zm1.8-2.6c0 .4-.2.8-.2 1h-.4l.6-1zm1.4-1.6c0 .4-.2.6-.2 1h-.4l.6-1zm1.2-1.6v1h-.6c.2-.4.4-.8.6-1zm6.6 88c1.2-.4 1.4-.6 1.4-1.4.2-.4.2-.8.2-1.2-.8.8-1.4 1.6-1.6 2.6-1.2 1.2-1.8 2.4-2.4 3.8-.8.8-1.2 1.8-1.6 2.8 1.4-.6 1.6-1.6 1.6-2.8 1.6-.8 2.8-2 2.4-3.8zm5-6.6c.6-1 1.4-2.2 2.2-3.2l2.4-3c4.2-6.4 9-12.2 13.8-18.2.6-.8 1.4-1.4 1.6-2.4-.8 0-1.2.8-1.6 1.2-5.8 6.2-10.8 13-15.8 20l-1 1.8c-1 1-1.6 2-2.2 3.2l-.6 1.2c.4.2.8 0 1.2-.6zm2.6-97.4c1.4-.8 1.4-.8 1.4-1.6-.4.4-.8.8-1.4 1.6zm4.2 93c-.4 1.4-1 2.6-2.4 3.4.6-1.2 1.2-2.4 2.4-3.4zm1.4-2.2c0 1-.6 1.8-1.4 2.4.2-1 .6-1.8 1.4-2.4zm0 .2l1.6-2.4c-.2 1-.8 1.8-1.6 2.4zm.8-90.4c1-1 2-1.8 2.4-2.6-1.6.8-1.6.8-2.4 2.6zm3.6 84.2c-.4 1.2-1 2.2-2.2 2.8.6-1 1.2-2 2.2-2.8zm-1-87.2c.8-.4 1.4-1 2-1.8-1.2.6-1.6 1.2-2 1.8zm1.6 86.2c.8-1 1.6-1.8 2.2-2.8-.4 1.2-1 2.2-2.2 2.8zm9.6-12.6c.2-.2.6-.4 1-.6-2.4 3.8-5 7.4-8.4 10.4 1.2-1.6 2.2-3.2 3.2-4.8.6-.4 1-1 1.4-1.6.4-.6.8-1.2 1.4-1.8.6-.4 1-.8 1.4-1.6zm-.6-3v-.2l-.2.2h.2zm4-1l-1.8 1.8c.8-.4 1.4-1 1.8-1.8zm50.8 114.2l-1.6 2.4c1.2-.8 1.2-.8 1.6-2.4zm6.2-1.8c-1.4 1.4-2.2 2.8-2.6 4.4 1.8-2 2.2-2.4 2.6-4.4zm4.2-12.6c.2-.4.4-.6.8-1 .6-.8 1.2-1.6 1.4-2.8v.2c.8-.8 1.4-1.8 1.6-2.8.4-.4.6-.8.8-1.2.2-.6.6-1 .8-1.6.8-.8 1.4-1.8 1.8-2.8h-.2c.6-.6 1-1.2 1.4-1.8 2.6-5 5.2-9.8 7.8-14.6.4-.6.4-1.2.6-1.6.6-.6.8-1 .8-1.6 0-.2 0-.2.2-.4l.6-1.4c.4-.6.6-1 .8-1.6h.2l-.2-.2c1-.8 1.6-2 1.2-3.2.2-.8.6-1.6.8-3-1 1.2-1.6 2.4-2 3.4l-5.6 10.8c-5 9.6-10.4 19.2-16 28.6-1 1.6-2.2 3.4-3.2 5.2-.2.4-.4.8.4.8.6-.8 1.2-1.8 1.8-2.8 1-1.6 2-3.2 3.4-4.6zm39.6-71.4h-.2c-4 9-7.8 17.8-12 26.6-8.4 17.6-17.6 34.6-28 51.4-.2 0-.2.2-.2.4V281.4c.2-.2.6-.2.6-.2 6.2-9.4 11.8-19 17-28.8 8.6-16.4 16.4-32.8 22.8-49.8v-.2zm-22.4 39.8c-.2.6-.2 1-.4 1.6-.2 0-.4-.2-.6-.2.4-.4.6-.8.8-1.4h.2zm.8-1.8c-.2.4-.2 1-.2 1.4-.2 0-.2.2-.2.2v.2h-.4v-.2s0 .2-.2.2l1-1.8zm.8-1.6c-.2.6-.2 1-.4 1.6H716.7l1-1.6zm.2-.4l.2.2v.2h-.4c0-.2.2-.2.2-.4zm3.6-9l-.4.4v.2l.4-.6zm1.6-3.4c-.2.6-.4 1.2-.8 1.8.4-.4.8-1 .8-1.8zm1.2-2.2c0-.2-.2-.2-.2-.2l-.6 1.4.8-1.2zm-.6 3.2l.2.2v-.2h-.2zm2.2-6.8c0-.2.2-.4.4-.6v-.2l-.2.2c-.2.2-.2.4-.2.6-.2 0-.2.2-.4.4l.4-.4zm1.8-4c.2-.2.4-.6.4-.8 0-.2-.2-.2-.2-.2l-.6.8v.4c.2-.2.4-.2.4-.2zm2-4.6c0-.2 0-.4.2-.6-.2.2-.2.4-.2.4 0 .2-.2.2-.2.4l.2-.2zm10.2-12.8s0-.2-.2-.2v.2h.2zM811.3 267h1c-.2.4-.6.8-1 1-.8.6-1.6 1-2.6 1.6-4 1.8-7.8 4.2-11.6 6.4l-2.6 1.4c-3.8 2.4-7.8 4.6-11.6 7-2.4 1.4-4.6 2.6-7 3.8-1.4.4-2.6 1-4 1.2-3.2.8-5.8 0-7.8-2.6-.6-.8-1.2-1.4-1.6-2.2-1-1.6-1.6-3-1-5 .6-2.4 1.4-4.8 2.6-7l1.2-3.2c.2-.6-.2-1-1-.8-.6.2-1.4.4-2.2.8-3 1.4-6 3-9 4.6-1.6 1.2-3.2 2.2-4.6 3-.4.2-.8.6-1 .8-1 .6-2 1.4-3 2.2h.2c-3.2 2.6-6.4 5.2-9.8 7.6-1.2 1-2.4 1.8-4 2.2-1.8 1-5.6.2-6.6-1.6l-1-1.2c-1.4-1.4-1.8-2.8-1.2-4.6.6-2.6 1.8-5.2 3-7.4 1.2-2 2.2-3.8 3.2-5.8 2.6-4.4 5.6-8.8 8.8-13 2.4-3.2 5.2-6.4 8-9.6 1.2-1.2 2.6-2.4 4-3.6.6-.4 1-.6 1.6.2.2.4 1 0 1 .8 0 .6.2 1.2-.2 2l-1.2 1.6c-2.8 4.2-5.6 8-8.4 12.2-.6.8-1 1.6-1.2 2.4-2 2.4-3.6 5-5 7.8 0 .2 0 .4-.2.8s-.4.4-.6.8v.6c-.2.4-.6.8-.8 1.2-.4.4-.6.8-.4 1.4-.4.4-.6.8-.8 1.2-1 .4-1.2 1.2-1 2.2.2.4.6.6 1 .4.8-.4 1.4-1.2 2.4-1.8 4.4-3.8 9-7.2 14.2-10 3-1.6 6.2-3.4 9.6-4.6 1.2-.6 2.6-1.2 3.8-1.4 2.6-.8 4.6-.2 6.6 1.4 1.2 1.2 2.6 2.6 3.4 4 .6 1.4.8 2.6.4 4-.2 2.2-1 4.2-1.8 6.2-.6 1.4-1 3-1.8 4.6 0 .2 0 .4.2.6h.8c.6-.2 1.2-.6 1.8-.8 3-1.6 6-3 8.6-4.4 5.2-2.6 10.4-5 15.2-7.8 2-1 4.2-1.8 6-2.6 1-.6 2-1 2.8-1.4.8-.4 1.4-.6 2-1 2-.8 3.6 0 4.8 1.4.4.2.4.6.2 1-.2.2-.8.4-.8 1zm-78.4 15.2c1-.4 1.6-1 2.2-1.8h.6c.2 0 .2.2.2.4 0-.2.2-.4.4-.4l.4-.4h-.4l.4-.6c0 .2 0 .4.2.6 0-.2.4-.4.6-.6h-.8c.2-.4.8-.6 1.4-.8v.4c.2 0 .2-.2.2-.4h-.2c.2-.2.2-.4.2-.4.2-.2.4-.4.6-.4v.4h-.4v.4c0-.2.2-.2.4-.4.6-.2.8-.4 1.2-.8h-.8c.2-.6.8-1 1.4-1v.4c.2-.2.2-.4.2-.4h-.2c.2 0 .2-.2.4-.4.2-.4.6-.8 1-1 .2-.2.4-.2.8-.4.4-.4.6-.8 1.2-.8v.4l.4-.4h-.4c.2 0 .4-.2.4-.4l.6-.8h.8c.2-.2.2-.6.4-1 .6 0 1-.4 1.2-.8.6 0 1-.4 1.2-.8-.4 0-.8.2-1.2.8-.4 0-1 .4-1.4.8-.4 0-1 .4-1.4.8-1 .4-2 1.4-2.8 2.2-2.6 1.6-5 3.4-7 5.6-.8.4-1.6 1-2 1.8l-.6.6c.2-.2.4-.4.6-.4zm19.4-9.6c-1 0-1.6.4-2.2 1.2-.4 0-1 .2-1.4.6-4.6 2.8-8.6 6.4-12.8 9.8-.2.2-.2.6-.4 1-.6 0-1 .4-1.2.6.4 0 .8-.2 1.2-.6 1.2-.4 2-1.4 2.8-2.2 3.8-2.8 7.4-6 11.4-8.6l.4-.6c1 0 1.6-.6 2.2-1.2zm-16.6 7.8c.2-.2.4-.2.6-.4v.4h-.6zm9-7v.4l.6-.4h-.6zm40.2 7.8c-.6.2-1 .4-1.2.8.4-.2.8-.4 1.2-.8zm2-1.2c-.4.2-.8.4-1.2.8-.2.2-.6.2-.6.4l.6-.4c.6-.2 1-.4 1.2-.8zm.8-.6c0 .2-.4.4-.6.4.4 0 .6 0 .6-.4zm2.4-1.2c-.6.2-1 .4-1.2.8.4-.2 1-.2 1.2-.8zm.8-.4c-.4 0-.6.2-.6.2s.4 0 .6-.2zm.8-4.4l-.6.4c.2 0 .4 0 .6-.4zm0 4c-.2 0-.4.2-.6.4l.6-.4zm2.2-1.4c-.8.4-1.6.4-2 1.4.8-.4 1.4-.8 2-1.4zm1-.4c-.4 0-.8.2-.8.4.2 0 .4-.2.8-.4zm.6-.4s-.4 0-.6.2c.4 0 .6-.2.6-.2zm2.4-1.4c-.2.2-.6.2-.8.4.4 0 .6-.2.8-.4zm.8-.2c-.2 0-.6 0-.6.2 0 0 .4-.2.6-.2zm4-2.4c-.4 0-.6.2-.8.4-1 .2-1.6.6-2.2 1.4.8-.4 1.6-.4 2.2-1.4.2-.2.4-.2.8-.4zm3.8-2.2c-.2 0-.2.2-.4.2l-.2.2c0 .2.2.2.4 0 0-.2 0-.2.2-.4z"/><path d="M874.3 265c-5 1.8-9.6 4.6-14 7.6-2 1.4-4.2 2.6-6.2 3.8-3.6 2.8-7.8 5-11.6 7.6-3.4 2.6-7 5-10.4 7.8-1.6 1.2-3.2 2.6-4.8 4h-.2c-2.4 1.8-4.8 3.4-7.2 5-4 2.8-8.2 5.2-12.4 7.4-2.4 1.2-4.8 2-7.4 2.2-3.2.2-5.8-.6-8-2.8-3-3.2-4-7-3.2-11.6.8-5.4 2.8-10.4 5.2-15.4 2-4.2 4.6-8.2 7.4-12.2.4-.6.8-1.2 1-2 .8-2 2.2-3.6 4-4.8 1.2-.8 2.2-1.8 3-3 2.4-2.6 5.2-4.8 8-7 1.4-.8 3-1.6 4.4-2.2 2.4-.8 4.4-.6 6.2 1.2 2.8 2.8 3 5.2-.4 8.8-2.6 2.8-5.4 5.6-8.6 7.8-3.2 2-6.2 4-10 4.6-1 0-1.8.6-2.6 1.6-.6.6-1.2 1.4-1.6 2.2-2.2 3.8-4.4 7.6-6 11.4-.2.4-.2.8-.4 1.2v.6c-1 1.6-1.2 3.2-1.6 5-.6 2-1 4-1.2 6.2-.2 1.2-.2 2.6 0 3.8.2 1 .8 1.2 1.6 1 1.4-.2 2.8-.8 4-1.4 3-1.4 5.8-3 8.4-4.8 4.8-3 9.4-6.2 14-9.2 7.2-4.8 14.2-9.6 21.4-14.2 5.6-3.6 11.2-7.2 17-10.4 1.4-.8 3-1.6 4.6-2.4 1-.6 1.8-1 2.8-1.4 1.2-.2 2.2-.2 3 .8.8.8 2 1.6 1.8 3.2zm-61.2-.2c1.4-.2 2.6-.8 3.6-1.8 1-.8 2-1.4 2.8-2.2 1.4-1.2 2.6-2.6 4-4 .2-.2.2-.6 0-.8-.2-.2-.4-.2-.6 0-2 .8-4 2-5.2 3.8h-.2c0 .2-.2.4-.4.4v.2c-1.6 1.2-3 2.6-4 4.4zm1.2 33.6c-.2 0-.4.2-.4.4 0-.2.2-.2.4-.4zm.2-.2c.6 0 1-.2 1.4-.8-.6 0-1 .4-1.4.8zm1-42.4h.6v-.4c-.2 0-.4.2-.6.4zm53.8 10c-.6 0-1 .4-1.4 1-.4 0-.8 0-1.2.4-.4.2-1 .2-1.4.6-4 2.4-8 4.6-11.6 7.4-1.4.6-2.8 1.4-4 2.4-.8.6-1.8 1-2.6 1.6-3.6 2.4-7.2 4.8-10.4 7.4l-2 1.2c-4.6 3.4-9.2 6.8-13.8 10-.8.6-1.8 1.2-2.2 2-.8 0-1.2.4-1.6 1-.6.2-1.2.6-1.6 1 .6-.2 1.2-.4 1.6-1 .6 0 1.2-.4 1.6-1 1.2-.2 2-1 3-1.6 3-2 5.8-4.2 8.8-6.2 2.2-1.6 4.2-3.4 6.4-5 4.6-2.8 8.8-5.8 13.2-9 1.4-.6 2.6-1.4 3.8-2.6.4-.2.8-.2 1.2-.6 3.4-2 7-4.2 10.4-6.4.6-.4 1-.6 1.2-1l1.2-.6c.6-.2 1.2-.4 1.4-1zm-50.2-3c-1 .8-2.2 1.4-3.2 2.4 1 .2 1.8-.4 2.4-1 .6-.2.8-.8.8-1.4zm-3-7.6h.6v.6c0-.2.2-.4.4-.6l.6-.4c.6-.2 1.2-.6 1.6-1 .6-.4 1.2-.6 1.6-1 0-.2 0-.4.2-.6-.2-.2-.2-.4-.2-.4-1.4.6-2.6 1.2-3.6 2.4l-.6.6-.6.4zm0 4.4c2.6-1.8 4.8-3.6 7.4-5.4-2.6.6-5.6 2.8-7.4 5.4zm.6-4.4v-.4h.4c.2-.2.2-.4.2-.6l.4.6h-.4c0 .2-.2.2-.2.4h-.4zm0 41.6c.6 0 1.2-.4 1.4-1-.6.2-1 .4-1.4 1zm.8-36.4c-.2 0-.4-.2-.4-.2h.2l.2.2zm1.2 6c-.6 0-1 .4-1.4.8.6 0 1.2-.2 1.4-.8zm-.4 29.4c.4-.2 1-.4 1.4-.4.2-.4.6-.6.8-1h.8l.6-.6v.4c.2 0 .4-.2.6-.4h-.6c.2-.2.4-.4.6-.4 0-.2.2-.2.2-.4l.8-.2c.2-.2.4-.2.6-.4v.4l.4-.4h-.4v-.2c.2 0 .4-.2.6-.4v.4c.2 0 .2-.2.4-.4.4-.2.8-.4 1-.4l.6-.6h-.4l.6-.4v.4c0-.2.2-.4.4-.4.6-.2 1.2-.6 1.6-1v-.4l.2.2.2-.2v-.2h.2c.6-.2 1.2-.4 1.6-1v-.2h.2v.2c0-.2.2-.4.4-.4l.6-.6c.6 0 1.2-.4 1.6-1 .2-.2.4-.4.6-.4.6-.2 1.2-.6 1.6-1l.6-.6c.4-.2.6-.4 1-.4l.6-.6c.2-.2.4-.4.6-.4-.2-.2-.4-.2-.4-.2v-.2c.2 0 .2.2.4.2.4 0 .6-.2 1-.4l.6-.6c.6-.2 1-.6 1.6-.8l.6-.6c.6-.2 1.2-.6 1.6-1 .2-.2.4-.4.6-.4-.2-.2-.4-.2-.4-.2v-.2c.2 0 .2.2.4.2.4 0 .6-.2 1-.4.2-.2.4-.4.6-.4h-.6c.2-.2.2-.4.2-.6.2.2.2.4.4.4.4-.2.8-.6 1-1h.6c.6-.2 1-.6 1.6-.8l.6-.6c.4-.4.8-.6 1-1 .2-.2.2-.2.2-.4l.4.4c.4-.4.8-.6 1.2-1v-.4c.2.2.4.2.4.4.6-.4 1.2-.8 1.8-1h-.2c.6-.4 1.2-.8 1.8-1h-.2c.6-.4 1.2-.6 1.6-1l1.8-1c.4-.4 1-.6 1.6-1 .4-.4.8-.6 1-1 .2-.2.2-.2.2-.4l.4.4c.4-.4.8-.6 1.2-1-.2-.2-.2-.4-.2-.6-.4.2-1 .4-1.4 1-.8.2-1.2.4-1.8 1-.6.2-1.2.4-1.4 1-.8.2-1.4.4-1.8 1-1.8.8-3.4 1.6-4.8 3-.6.2-1.2.4-1.6 1-.8.2-1.2.4-1.8 1-1.4.6-2.6 1.4-3.8 2.6-.6 0-1 .4-1.6 1-.8.2-1.6.8-2.2 1.4-1.4.6-2.6 1.4-3.8 2.6-.8.2-1.6.8-2.2 1.4-.8.2-1.6.8-2.2 1.4-.8.4-1.6.8-2.2 1.6-1.4.8-3 1.8-4.4 3-1 .4-1.8 1.2-2.8 2-.8.4-1.4.8-2 1.4-.8.4-1.6 1-2.2 1.6-.8.4-1.6.8-2 1.6zm4.2-32.4c-.2 0-.4.2-.4.2-1 .6-2 1.2-2.8 2.2-.2.2-.2.4-.4.4.2 0 .4-.2.4-.4 1.2-.2 2.2-1 2.8-2 .2-.2.4-.2.4-.4zm1.2-1c-.2 0-.4.2-.4.4.2-.2.4-.2.4-.4zm1.2 29c0 .2.2.4.2.4h-.4s.2-.2.2-.4zm2.4-1.6v.6h-.4c.2-.2.4-.4.4-.6zm4.4-2.8v.4c-.2-.2-.2-.2-.4-.2.2 0 .2-.2.4-.2zm.2-.4c.2 0 .2.2.4.2-.2 0-.2 0-.4-.2zm2-.8v-.4c.2.2.2.2 0 .4zm.6-.4c-.2-.2-.4-.2-.4-.2v-.2c.2 0 .2.2.4.4zm1.8-2l.4.4h-.6c.2 0 .2-.2.2-.4zm2-1v.4h-.6l.6-.4zm4-3l.4.4h-.6c.2-.2.2-.2.2-.4zm7.6-5l.4.4h-.6c.2-.2.2-.2.2-.4zm14.6-9.2c.4 0 .8 0 1-.4l-1 .4zm1.2-.4c.2 0 .6-.2.8-.4-.2 0-.6 0-.8.4zm1-.6h.4l.2-.2c0-.2-.2-.2-.4-.2 0 .2-.2.4-.2.4zm3.6 1.2c-.2 0-.6 0-.8.4.2-.2.6-.4.8-.4z"/><path d="M918.7 260.4c0 .6-.2 1-.4 1.6 0 .2-.2.4-.4.6-3.2 2.6-6.6 5.2-10 7.8-4.6 3.6-9.4 7.2-13.8 10.8-7.8 5.8-15.4 11.8-23.2 17.6-2.4 1.8-4.8 3.4-7.4 4.8-1.2.6-2.2 1.2-3.6 1.4-1.6.2-2.8 0-3.8-1l-1-.6c-1.8-1.2-2.6-3-2.2-5.4.4-3 .8-6.2 2.2-9 .8-1.2 1.4-2.4 1.8-3.8 1.8-4.2 4.2-8.4 6.6-12.4 2.4-4.4 4.8-8.6 7.4-12.8 2.8-4 5.6-8.2 8.8-12.2.4-.4.8-1 1.6-1.2 2.2 1.2 2.6 2 1.6 4.4-.8 2.4-2 4.8-3.4 7.2-1 1.6-1.8 3.2-2.6 4.8-.2.2-.4.6-.4.8h.4c-.4.4-.6.6-.6 1-.8.6-1.2 1.2-1.8 2-.6 1.6-1.6 3.2-2.6 4.8-.2.6-.4 1.2-.8 1.8-.2.4-.4.6-.4.8.2.2.2.2.4.2h-.4c-1.2 1-1.8 2.4-2.2 3.8-.6.8-1.4 1.8-1.4 3-.8.8-1.4 2-1.6 3-1 1.4-1.8 2.6-2 4.2 0 .2 0 .4-.4.6-1.8 2.4-2.4 5.2-3.4 7.8-.2.8-.2 1.6-.2 2.4 0 .4.6.6 1 .6.4-.2.8-.4 1-.6l3.8-2.4c1.8-1.2 3.4-2.6 5.2-3.8 4.2-3.2 8.6-6.4 12.8-9.4 3.2-2.4 6.4-4.4 9.4-6.8 4.6-3.4 9.4-6.8 14-10.4l8.4-6c1-.8 1.8-1 3-.4l.6.4zm-57.2 28.8v.2-.2zm1-2.2c.4-.4.4-.8.6-1.2.2-.4.2-.8.4-1v-.2c-.2.4-.2.8-.4 1.2-.2.4-.2.6-.6 1v.2zm2-4.2c.2 0 .2 0 .4-.2 0 0-.2 0-.2-.2 0 .2-.2.2-.2.4zm2.4-4c0-.4.2-.6.2-1 0 .2-.2.6-.2 1zm22.8-42.2c-.6-1-1.4-1.8-1-3 .2-1 .6-1.8 1-2.6 2-3.4 4.6-6.6 7.2-9.6.6-.8 1.4-1.4 2.2-2s1.6-.6 2.4 0c.6.6 1.2 1 1.8 1.4-.6.8-1 1.4-1.6 2-.8.4-1.4.8-1.8 1.8-.4.2-1 .4-1 1.4.4-.8.6-1 1.2-1.4.4-.6 1-1.2 1.6-1.8.8-.2 1.2-.4 2.2-.6-.6.6-.6.8-.8 1-1.8 1-3.4 2.6-4.6 4.4-1.4 2-2.8 4-3.8 6.2-.8 1.2-1.6 2.4-2.6 3.4-1 .2-1.8.2-2.4-.6zm9.4-15h.2c.4.2 1-.2 1-.8h-.2c-.4-.2-.6-.2-.8.2-.2.2-.2.4-.2.6z"/><path d="M995.3 105c-.6 2.2-1.6 4.4-2.6 6.6-1 2.4-2.2 4.8-3.4 7.2l-3 6c-.6 1.6-1.4 3-2.2 4.6l-1.8 3.6c-2.4 4.6-4.8 9-6.8 13.6 0 .4-.2.6-.4 1-.2.2-.2.6-.4.8-.2.4-.4.6-.4 1v-.2c-1.4 2-2.4 4-3 6.2-.2.4-.4.6-.6.8-.8 1.2-1.4 2.2-1.6 3.6-.2.2-.2.6-.4.8-.4.6-.8.8-1.2 1.4-1 2-2 4.2-3.2 6.4v.6c-.2.2-.4.6-.6.8-.8 1-1.6 2.2-1.8 3.6l-.4.4c-1 2.2-2.2 4.6-3.4 7-.2.2-.4.6-.4.8l-.6.8c-.6.8-1.2 1.8-1.2 2.8-2 2.8-3.6 5.8-4.8 9l-.4 1c-.2.2-.4.6-.4.8l-.6.8h.2l-.6 1c-.4.6-1 1.4-1.4 2l-6.6 13.2c-.6 1.4-1.6 2.8-2 4.4-.2.2-.2.6-.4.8-.2.6-.6 1.2-.8 1.8l-.6.8c-.2.6-.6 1.2-.8 1.8-.2.4-.2.6-.4.8.2 0 .2 0 .4.2h-.4v-.2l-1 1.8h.2c-.2.4-.4.6-.4.8 0 0 .2.2.4.2h-.6v-.2c-1 1.6-1.6 3.2-2.2 4.8h.2c-.2.4-.4.8-.6 1 0 .2-.2.6-.4.8l-.4 1c-.2.2-.4.6-.4.8-.4.4-.8 1-1 1.4-1.4 3.4-2.8 6.6-4.4 9.8-.2.4-.2 1-.4 1.4 0 .4-.2.6-.4 1h.4c0 .2-.2.6-.4.8-1.2 1.2-2 2.6-2.4 4.2-.2.4 0 .8.2 1 .2-.2.4-.6.4-1 0 .4-.2.8-.2 1.2h-.2c-.2.2-.4.2-.6.4l-.6 1.6c-.2.4-.4.6-.6 1l.2-.2s.2 0 .4.2h-.4c-.4.8-.6 1.4-1 2l-.4 1c-.8 1-1.2 2.2-1.4 3.4-1 1.8-1.8 3.6-2 5.6-.8.6-.8 1.2-1 2.2.2 0 .4.2.6.2h-.6v-.2c-.8 2.2-1.4 4.2-2.2 6.2-.2.4-.4.8 0 1.4l-.4.6c-.6.6-.8 1.2-.8 1.8-1 2.2-1.8 4.6-2.2 7-.2.4-.2 1-.4 1.4-.2.6-.4 1.2-.4 1.8v-.2c-.2.6-.4 1-.4 1.4-.4.4-.6 1-.8 1.6-.8 3-1.8 6.2-2.2 9.2l-.6 4.6c-.4 2-.4 3.8-.2 5.8 0 .6.2 1.4.8 1.8.4 0 .8 0 1.2-.2 1-.8 2.2-1.4 3.2-2.2 2.2-1.8 4.4-3.8 6.6-5.8 3.8-3.6 7.6-7.2 11.4-11 3-2.6 5.8-5.6 8.6-8.4 2.2-2.2 4.6-4.6 7-6.8l10.8-9.8c3.2-2.8 6.4-5.6 9.6-8.2.2-.2.4-.4.8-.6 1-1 2.2-1.4 3.6-.2.6.6.4 1.4-.4 2-1.4 1.2-2.8 2.6-4.4 3.8-7.8 7.2-15.4 14.6-22.8 22.2l-6 6.2c-2.4 2.4-4.6 4.8-7 7-4.4 4-8.6 8.2-13.4 12-1 .8-2.2 1.6-3.4 2.4-1 .6-2.2 1-3.2 1.4-3.8 1-8-1.6-9-5.4-.6-2.8-.4-5.6 0-8.2.4-5.4 1.4-10.4 2.8-15.4l3.6-12.6c.2-1.2.6-2.2.8-3.2.8-1.8 1.2-3.6 2-5.4.8-1.6 1.2-3.4 1.8-5 1.2-3.4 2.6-6.8 3.8-10.2 1-2.4 1.8-4.8 3-7.2 1-1.8 1.6-4 2.6-6 2.4-5.4 5-10.8 7.6-16.2 2-4.2 4.2-8.4 6.4-12.6 1-2 1.8-4 2.8-6l4.6-8.4 3.6-7.2c1.6-3 3.2-6 4.6-9l8.4-15.2c2.6-4.6 4.8-9.4 7.4-14.2 1.2-2.4 2.6-4.6 3.8-7l2.4-4.4c1.8-4 4-7.6 6-11.4 4.2-7.4 8.6-14.6 13.2-21.8.4-.4.6-1 1-1.4 1.2-1.6 2.4-3 3.4-4.4.6-.2.8.2 1 .6.2.8.2 1.8 0 2.6zm-37.6 73.6c-.8.4-1 1.2-1.4 1.8-2 4-4.2 8-6.2 11.8-3.2 6.2-6.4 12.2-9.4 18.2-3.4 7-7 14-10.4 21.2-3 6.2-5.8 12.4-8.6 18.8-3.2 7.4-6.2 15-8.8 22.8-2.2 6.2-4.2 12.4-6 18.8l-.4 2.2c-.4 1-.8 2-.8 3-.2.2-.4.6 0 1.2v-1.2c.8-1 1-2 .8-3 .8-1 .8-2 1.2-3 2.4-7.8 4.8-15.4 7.8-23 3.6-9.8 7.8-19.6 12.2-29.2 2.6-5.4 5-10.8 7.6-16l7.8-15.6 13.8-27c.4-.6.6-1.2.8-1.8zm-46.4 88c.2-.4.8-.6.4-1.2-.2.4-.2.8-.4 1.2zm1.8-4.8c.6-.6.8-1.2 1-2-.4.6-.6 1.4-1 2zm0 17.2v-1.4c.2 0 .4 0 .6.2l-.6 1.2zm3-24.8c0 .2.2.2.2.2.2-.4.2-.8.4-1.2-.2.4-.4.8-.6 1zm1-2l.8-.8v-1.2c.8-.6.8-1.4 1-2.2-.6.6-1 1.2-1 2.2-.6.4-.8 1.2-.8 2zm3 8v-1c.2 0 .4.2.6.2-.2.2-.4.4-.6.8zm.4-16.2c.4-.6.8-1 1-1.6l1.2-1.8v-1.4c-1.2 1.4-1.8 3-2.2 4.8zm.2 15.4v-.2.2zm4.2-25c-.8.8-1.2 1.6-1.2 2.8.4-.6.8-1 1.2-1.4v-1.4zm.4 13.6v-1c.2 0 .4 0 .6.2-.2.2-.4.4-.6.8zm.6-.8v-.2.2zm.4-15.4l1.2-1.8c.2-.2.2-.4.4-.6v.6h.2v-.8l-.2.2v-.2c.2-.8.4-1.4.6-2.2.2-.2.4-.2.8-.4v-1.4c-.2.6-.6 1.2-.8 1.8-1.2 1.4-1.8 3-2.2 4.8zm5.2 1.8h.4c-.2.2-.2.4-.4.8v-.8zm.4-1h.4c0 .4-.2.6-.4 1v-1zm.4-13.6c.6-.4.8-.8 1-1.6-.6.4-1 .8-1 1.6zm.4 12.8c0-.2 0-.6.2-1v1c-.2.2-.4.6-.6.8v-.8h.4zm5.4-10.8c-.2 0-.4-.2-.6-.2h.6v.2zm7.8-28.6c.2-.2.2-.6.4-.8-.2.2-.4.6-.4.8zm3.4 6.2v-.8h.6c-.2.2-.4.4-.6.8zm1-1.6c-.2.2-.4.4-.4.8v-.8h.4zm0-1h.4c-.2.2-.4.6-.4.8v-.8zm.4 0v-.8h.4c-.2.2-.2.4-.4.8zm7-13.6v-.8h.4c-.2.2-.2.6-.4.8zm.4-4.8c.4-.4.8-1 .8-1.4-.6.4-.8.8-.8 1.4zm4-4.2h-.2l.2-.2v.2zm-.2.8l.2-.2v.2h-.2zm1.4-6.6c-.8.6-1 1.4-1.2 2 .8-.4 1-1 1.2-2zm-1.2 6.4v-.6h.4c-.2.2-.4.4-.4.6zm3.4-10.6c-.2.6-.6 1-.8 1.6.6-.4.6-1 .8-1.6zm1.2-2.6c-.4.6-.8 1-.8 1.6.6-.4.8-.8.8-1.6z"/><g><path d="M333 459.8v13.6h-4.8v-9.1h-33.9v9.1h-4.8v-13.6h2.2c2.5-.1 4.3-2 5.2-5.6.9-3.6 1.5-8.6 1.9-15.1l.5-12.7h27.9v33.4h5.8zm-31.1-7.2c-.7 3.5-1.9 5.9-3.6 7.2H322v-28.9h-18.2l-.4 8.4c-.3 5.4-.8 9.9-1.5 13.3zM342.9 426.4h5.1v30.1l25.3-30.1h4.5v37.9h-5.1v-30.1l-25.2 30.1h-4.6v-37.9zM416.3 447.8c1.5 1.5 2.2 3.4 2.2 5.6 0 2.2-.8 4.2-2.3 5.9-1.5 1.7-3.6 3.1-6.2 4-2.6.9-5.4 1.4-8.6 1.4-2.7 0-5.4-.4-8.1-1.2-2.6-.8-4.9-2-6.9-3.5l1.7-3.8c1.7 1.3 3.7 2.3 6 3s4.6 1.1 7 1.1c3.5 0 6.4-.7 8.6-2 2.2-1.3 3.3-3.1 3.3-5.4 0-2-.9-3.6-2.7-4.7-1.8-1.1-4.3-1.7-7.5-1.7h-6.5v-3.7h6.2c2.8 0 5.1-.5 6.8-1.6s2.6-2.5 2.6-4.4c0-2-1-3.6-2.9-4.8-1.9-1.2-4.5-1.7-7.6-1.7-4.1 0-8.1 1-12.1 3.1l-1.4-4c4.5-2.4 9.2-3.5 14-3.5 2.9 0 5.5.4 7.8 1.3 2.3.8 4.2 2 5.5 3.6 1.3 1.5 2 3.3 2 5.3 0 1.9-.7 3.6-2 5.1-1.3 1.5-3.1 2.6-5.4 3.3 3 .7 5 1.8 6.5 3.3zM454.5 429.8c2.6 2.5 4 6.1 4 11v23.5h-4.9v-5.9c-1.2 2-2.8 3.5-5.1 4.6-2.2 1.1-4.9 1.7-8 1.7-4.2 0-7.6-1-10.1-3s-3.7-4.7-3.7-8c0-3.2 1.2-5.8 3.5-7.8s6-3 11.1-3h12v-2.3c0-3.3-.9-5.7-2.7-7.5-1.8-1.7-4.5-2.6-8-2.6-2.4 0-4.7.4-6.9 1.2-2.2.8-4.1 1.9-5.7 3.3l-2.3-3.8c1.9-1.6 4.2-2.9 6.9-3.8 2.7-.9 5.5-1.3 8.5-1.3 5 0 8.8 1.2 11.4 3.7zm-5.8 28.8c2.1-1.3 3.6-3.2 4.6-5.7v-6.2h-11.9c-6.5 0-9.7 2.3-9.7 6.8 0 2.2.8 3.9 2.5 5.2 1.7 1.3 4 1.9 7.1 1.9 2.9 0 5.4-.7 7.4-2zM472.1 426.4h5.1v30.1l25.3-30.1h4.5v37.9h-5.1v-30.1l-25.2 30.1h-4.6v-37.9zm9.4-7.9c-1.9-1.6-2.9-3.9-3-6.9h3.7c0 1.9.7 3.4 2 4.5s3 1.7 5 1.7c2.1 0 3.8-.6 5.1-1.7 1.3-1.1 2-2.6 2.1-4.5h3.7c0 3-1 5.3-3 6.9-1.9 1.6-4.5 2.4-7.8 2.4s-5.9-.8-7.8-2.4zM521.6 426.4h5.1v16.8h23.8v-16.8h5.1v37.9h-5.1v-16.7h-23.8v16.7h-5.1v-37.9zM589.1 426.4h5.1v30.1l25.3-30.1h4.5v37.9h-5.1v-30.1l-25.2 30.1h-4.6v-37.9zM671.2 447.4h-8.6v16.8h-5.1v-37.9h5.1V443h8.7l13.3-16.6h5.5l-14.9 18.4 16 19.5h-6l-14-16.9zM703.7 462.1c-2.9-1.7-5.2-3.9-6.9-6.9-1.7-2.9-2.5-6.2-2.5-9.9s.8-7 2.5-9.9c1.7-2.9 4-5.2 6.9-6.8 2.9-1.6 6.2-2.4 9.9-2.4 3.6 0 6.9.8 9.9 2.4 2.9 1.6 5.2 3.9 6.9 6.8 1.7 2.9 2.5 6.2 2.5 9.9s-.8 7-2.5 9.9c-1.7 2.9-3.9 5.2-6.9 6.9s-6.2 2.5-9.9 2.5-7-.8-9.9-2.5zm17.1-3.8c2.1-1.2 3.8-3 5-5.2 1.2-2.3 1.8-4.8 1.8-7.7 0-2.9-.6-5.4-1.8-7.7-1.2-2.3-2.9-4-5-5.2-2.1-1.2-4.5-1.8-7.2-1.8s-5.1.6-7.2 1.8c-2.1 1.2-3.8 3-5 5.2-1.2 2.3-1.8 4.8-1.8 7.7 0 2.9.6 5.4 1.8 7.7 1.2 2.3 2.9 4 5 5.2 2.1 1.2 4.5 1.8 7.2 1.8 2.6 0 5.1-.6 7.2-1.8zM780.4 459.8v13.6h-4.8v-9.1h-33.9v9.1h-4.8v-13.6h2.2c2.5-.1 4.3-2 5.2-5.6.9-3.6 1.5-8.6 1.9-15.1l.5-12.7h27.9v33.4h5.8zm-31-7.2c-.7 3.5-1.9 5.9-3.6 7.2h23.6v-28.9h-18.2l-.4 8.4c-.3 5.4-.7 9.9-1.4 13.3z"/></g></svg><svg viewBox="0 0 302.4 302.4" id="icons--brigth" xmlns="http://www.w3.org/2000/svg"><path d="M204.8 97.6C191.2 84 172 75.2 151.2 75.2s-40 8.4-53.6 22.4c-13.6 13.6-22.4 32.8-22.4 53.6s8.8 40 22.4 53.6c13.6 13.6 32.8 22.4 53.6 22.4s40-8.4 53.6-22.4c13.6-13.6 22.4-32.8 22.4-53.6s-8.4-40-22.4-53.6zm-14.4 92.8c-10 10-24 16-39.2 16s-29.2-6-39.2-16-16-24-16-39.2 6-29.2 16-39.2 24-16 39.2-16 29.2 6 39.2 16 16 24 16 39.2-6 29.2-16 39.2zM292 140.8h-30.8c-5.6 0-10.4 4.8-10.4 10.4 0 5.6 4.8 10.4 10.4 10.4H292c5.6 0 10.4-4.8 10.4-10.4 0-5.6-4.8-10.4-10.4-10.4zM151.2 250.8c-5.6 0-10.4 4.8-10.4 10.4V292c0 5.6 4.8 10.4 10.4 10.4 5.6 0 10.4-4.8 10.4-10.4v-30.8c0-5.6-4.8-10.4-10.4-10.4zM258 243.6l-22-22c-3.6-4-10.4-4-14.4 0s-4 10.4 0 14.4l22 22c4 4 10.4 4 14.4 0s4-10.4 0-14.4zM151.2 0c-5.6 0-10.4 4.8-10.4 10.4v30.8c0 5.6 4.8 10.4 10.4 10.4 5.6 0 10.4-4.8 10.4-10.4V10.4c0-5.6-4.8-10.4-10.4-10.4zM258.4 44.4c-4-4-10.4-4-14.4 0l-22 22c-4 4-4 10.4 0 14.4 3.6 4 10.4 4 14.4 0l22-22c4-4 4-10.4 0-14.4zM41.2 140.8H10.4c-5.6 0-10.4 4.8-10.4 10.4s4.4 10.4 10.4 10.4h30.8c5.6 0 10.4-4.8 10.4-10.4 0-5.6-4.8-10.4-10.4-10.4zM80.4 221.6c-3.6-4-10.4-4-14.4 0l-22 22c-4 4-4 10.4 0 14.4s10.4 4 14.4 0l22-22c4-4 4-10.4 0-14.4zM80.4 66.4l-22-22c-4-4-10.4-4-14.4 0s-4 10.4 0 14.4l22 22c4 4 10.4 4 14.4 0s4-10.4 0-14.4z"/></svg><svg viewBox="0 0 443.294 443.294" id="icons--clock" xmlns="http://www.w3.org/2000/svg"><path d="M221.647 0C99.433 0 0 99.433 0 221.647s99.433 221.647 221.647 221.647 221.647-99.433 221.647-221.647S343.861 0 221.647 0zm0 415.588c-106.941 0-193.941-87-193.941-193.941s87-193.941 193.941-193.941 193.941 87 193.941 193.941-87 193.941-193.941 193.941z"/><path d="M235.5 83.118h-27.706v144.265l87.176 87.176 19.589-19.589-79.059-79.059z"/></svg><svg viewBox="0 0 413.348 413.348" id="icons--close" xmlns="http://www.w3.org/2000/svg"><path d="M413.348 24.354L388.994 0l-182.32 182.32L24.354 0 0 24.354l182.32 182.32L0 388.994l24.354 24.354 182.32-182.32 182.32 182.32 24.354-24.354-182.32-182.32z"/></svg><svg viewBox="0 0 376.2 376.2" id="icons--logo" xmlns="http://www.w3.org/2000/svg"><path d="M298.2 314.2c15.5 9.2 31.7 2.6 31.7 2.6s-12.3-3.5-12.3-15.4c0-8 5.5-20.6 29.3-42.5 42.3-39 30.6-108.7-.6-158C312.6 47.8 232.4 2.8 213.8 8.4c-20.9 6-7.1 112.5-30.7 147.4-14.6 21.4-63.6 84.6-9.7 122.2-48.8-59.9 10.7-106.4 20-111.5 50.2-31.1 19.6-128.7 27-141.5 12.6 6.3 12.1 33.6 20 50 10.4 21.7 21.3 29.2 21.1 33.7-.2 4.6-10 9.1-10 9.1s7.5 7.2 7 10.2-7 6.5-7 6.5 6.7 1.9 6.5 4.6c-.1 2.6-7.4 8.8-7.4 8.8s11.4 19.7-9.6 20.9-26.6-5.3-32.6 0c-25.3 23.2-32.8 93.1-24.4 121 5.8 19.1 35 98.7 112.1 58.4-20.6.1-81.1-7.9-2.6-102.2 33.4-40.1 1.5-111.9 1.5-111.9s44.2 85.4 5.1 129.1c-24.2 27-16 42.5-1.9 51z"/><path d="M90.2 346.1c30.6 20.1 79.9 22.7 79.9 22.7s-36-22.4-50.4-42.5c-11.6-16.1-21.2-39.7.5-88.5 15.1-33.7 62.5-72.2 62.6-126.6 0-50.8 5-71.7 24.3-104.7 0 0-86.8 35.2-90.5 36.9-13.8 6.2 4.9 78.2 8.7 99 5.6 31-17 55.2-38.2 67.7-16.9 10-39.3 19.9-43.7 57.6-2.4 21 11.4 55.4 46.8 78.4z"/><path d="M21.1 246.8s4.8-14.6 14.7-22.5c18.3-14.6 39.2-15.4 66.3-43.3 14.2-14.7 19.7-28.8 19.3-56.2C121 93.4 208.1 6.6 207.1 6.6c-1.5 0-56-4.9-97.6 18.2-21 11.7-53.5 37.6-68.9 58-72.3 95.9-19.5 164-19.5 164z"/></svg><svg viewBox="0 0 528 528" id="icons--phone" xmlns="http://www.w3.org/2000/svg"><path d="M379.5 0h-231C121.204 0 99 22.204 99 49.5v429c0 27.296 22.204 49.5 49.5 49.5h231c27.296 0 49.5-22.204 49.5-49.5v-429C429 22.204 406.796 0 379.5 0zm-231 33h231c9.104 0 16.5 7.396 16.5 16.5V396H132V49.5c0-9.104 7.396-16.5 16.5-16.5zm231 462h-231c-9.104 0-16.5-7.396-16.5-16.5V429h264v49.5c0 9.104-7.396 16.5-16.5 16.5z"/><path d="M275.667 450.333c6.444 6.444 6.444 16.891 0 23.335s-16.891 6.444-23.335 0-6.444-16.891 0-23.335 16.891-6.444 23.335 0"/></svg><svg viewBox="0 0 524.235 524.235" id="icons--pin" xmlns="http://www.w3.org/2000/svg"><path d="M458.21 503.885l-32.765-131.059a16.376 16.376 0 00-15.886-12.415h-54.984c36.468-52.435 71.367-121.962 71.367-196.588C425.941 73.496 352.444 0 262.117 0S98.294 73.496 98.294 163.823c0 74.626 34.898 144.153 71.367 196.588h-54.984a16.375 16.375 0 00-15.886 12.415L66.025 503.885a16.33 16.33 0 002.976 14.047 16.364 16.364 0 0012.911 6.303h360.412c5.039 0 9.807-2.32 12.911-6.303a16.333 16.333 0 002.975-14.047zM262.118 32.765c72.265 0 131.059 58.794 131.059 131.059 0 115.316-97.846 222.698-131.075 255.83-33.229-33.101-131.043-140.29-131.043-255.83 0-72.265 58.794-131.059 131.059-131.059zM102.902 491.471l24.574-98.294h66.767c29.231 36.248 54.482 59.156 56.996 61.386 3.104 2.768 6.991 4.144 10.879 4.144s7.775-1.376 10.879-4.144c2.514-2.23 27.765-25.137 56.996-61.386h66.767l24.574 98.294H102.902z"/><path d="M327.648 163.824c0-36.14-29.389-65.529-65.529-65.529s-65.529 29.389-65.529 65.529 29.389 65.529 65.529 65.529 65.529-29.389 65.529-65.529zm-98.294 0c0-18.062 14.702-32.765 32.765-32.765s32.765 14.702 32.765 32.765-14.702 32.765-32.765 32.765-32.765-14.703-32.765-32.765z"/></svg><svg viewBox="0 0 490.523 490.523" id="icons--up" xmlns="http://www.w3.org/2000/svg"><path d="M487.411 355.047L252.744 120.38c-4.165-4.164-10.917-4.164-15.083 0L2.994 355.047c-4.093 4.237-3.976 10.99.262 15.083a10.666 10.666 0 0014.821 0l227.115-227.115 227.115 227.136c4.237 4.093 10.99 3.976 15.083-.261 3.993-4.134 3.993-10.688 0-14.821l.021-.022z" fill="#ffc107"/><path d="M479.859 373.266a10.663 10.663 0 01-7.552-3.115L245.192 143.015 18.077 370.151c-4.237 4.093-10.99 3.976-15.083-.262a10.666 10.666 0 010-14.821l234.667-234.667c4.165-4.164 10.917-4.164 15.083 0l234.667 234.667c4.159 4.172 4.148 10.926-.024 15.085a10.667 10.667 0 01-7.528 3.113z"/></svg><svg viewBox="0 0 363.301 363.301" id="icons--vk" xmlns="http://www.w3.org/2000/svg"><path d="M347.506 240.442c-7.91-9.495-16.899-18.005-25.592-26.235-3.091-2.927-6.287-5.953-9.368-8.962-8.845-8.648-9.167-11.897-2.164-21.72 4.845-6.771 9.982-13.551 14.95-20.108 4.506-5.949 9.166-12.101 13.632-18.273l.917-1.269c8.536-11.811 17.364-24.024 22.062-38.757 1.22-3.887 2.501-9.607-.428-14.39-2.927-4.779-8.605-6.237-12.622-6.918-1.987-.337-3.96-.383-5.791-.383l-55.901-.04-.462-.004c-8.452 0-14.148 3.983-17.412 12.178-3.116 7.83-6.539 16.168-10.445 24.096-7.773 15.787-17.645 33.97-31.93 49.135l-.604.645c-1.687 1.813-3.598 3.866-4.995 3.866-.214 0-.447-.041-.711-.124-2.959-1.153-4.945-8.316-4.855-11.648a6.35 6.35 0 00.002-.138l-.039-64.61c0-.224-.016-.446-.045-.668-1.422-10.503-4.572-17.041-16.474-19.372a4.923 4.923 0 00-.961-.094h-58.126c-9.47 0-14.688 3.849-19.593 9.61-1.324 1.54-4.08 4.746-2.714 8.635 1.386 3.947 5.885 4.791 7.35 5.065 7.272 1.384 11.371 5.832 12.532 13.604 2.027 13.496 2.276 27.901.784 45.334-.416 4.845-1.239 8.587-2.595 11.784-.315.746-1.432 3.181-2.571 3.182-.362 0-1.409-.142-3.316-1.456-4.509-3.089-7.808-7.497-11.654-12.942-13.084-18.491-24.065-38.861-33.575-62.288-3.527-8.624-10.114-13.452-18.556-13.594-9.276-.141-17.686-.209-25.707-.209-8.764 0-16.889.081-24.823.246-6.792.12-11.49 2.156-13.962 6.056-2.476 3.903-2.315 9.03.479 15.236 22.366 49.723 42.645 85.876 65.755 117.228 16.193 21.938 32.435 37.123 51.109 47.784 19.674 11.255 41.722 16.727 67.402 16.727 2.911 0 5.921-.071 8.956-.213 14.922-.727 20.458-6.128 21.158-20.657.333-7.425 1.145-15.212 4.795-21.853 2.304-4.184 4.452-4.184 5.158-4.184 1.36 0 3.046.626 4.857 1.799 3.248 2.12 6.033 4.96 8.316 7.441 2.149 2.357 4.274 4.738 6.401 7.12 4.59 5.141 9.336 10.456 14.294 15.497 10.852 11.041 22.807 15.897 36.538 14.843h51.252c.109 0 .219-.004.328-.011 5.107-.337 9.53-3.17 12.135-7.772 3.227-5.701 3.162-12.974-.174-19.46-3.785-7.334-8.695-13.6-12.997-18.759z"/></svg></svg>