<?xml version="1.0" encoding="utf-8"?>
<!-- Generator: Adobe Illustrator 24.1.2, SVG Export Plug-In . SVG Version: 6.00 Build 0)  -->
<svg version="1.1" id="Слой_1" xmlns="http://www.w3.org/2000/svg" xmlns:xlink="http://www.w3.org/1999/xlink" x="0px" y="0px"
	 viewBox="0 0 241.9 381.4" style="enable-background:new 0 0 241.9 381.4;" xml:space="preserve">
<style type="text/css">
	.st0{fill-rule:evenodd;clip-rule:evenodd;fill:#FFFFFF;}
</style>
<g id="Слой_2_1_">
	<g id="Слой_1-2">
		<path class="st0" d="M80.1,258.4c1.7-0.1,1.9-1.6,2.4-2.7c2.1-4.2,3.9-8.5,6.2-12.6c1.8-3.3,2.2-5.8-0.6-9c-3.3-3.7-5-8.4-6.7-13
			c-8.3-21.9-12.8-45.1-13.1-68.5c-0.4-22.7,4.4-44.6,12.5-65.8c2.1-5.4,4.3-10.8,6.8-16c3.2-6.5,5.7-13.4,7.4-20.5
			c0.5-2.2,0.8-4.4,1.1-6.7c0.1-0.7,0.5-1.8,1.4-1.8c1-0.1,1.5,1.1,1.7,1.9c4.3,14.3,8.8,28.5,11.7,43.2c3.6,18.1,3,36.3,0.8,54.6
			c-3.1,25.2-7.5,50.2-13.3,74.9c-0.7,3.2-1.1,6.4-1.1,9.7c6.2-7.3,10.8-15,12-24.7c2.1-15.9,5.5-31.6,7.2-47.5
			c0.8-6.9,2-13.7,1.9-20.6c-0.3-14.9,3.7-28.6,10.2-41.8c7.9-15.8,16.4-31.2,26.9-45.4c7.2-9.7,14-19.5,19.2-30.5
			c0.5-1.1,2.1-4.1,3.6-3.8c1.2,0.2,0.9,2.1,1.1,2.9c0.4,1.9,0.7,3.9,1,5.8c1.2,7.7,1.7,15.4,1.7,23.2c-0.1,9.5-0.9,19-2.5,28.4
			c1.8-0.8,2.1-2.3,2.7-3.5c9.1-20.5,21.5-39,35.2-56.6c2.5-3.2,4.6-6.5,7-9.8c0.8-1.1,1.7-2.4,3.2-2c1.9,0.4,1.9,2.2,2,3.8
			c0.1,2.2,0.1,4.5-0.1,6.7c-2.1,22.7-7.6,44.7-13.6,66.6c-2.5,9.1-7.3,17.2-12.9,24.8c-1.7,2.1-3.1,4.4-4.4,6.7
			c5.5-2.3,9.5-6.6,14.2-10s9.3-6.8,14-10.3c2.3-1.7,4.5-3.4,6.8-5.1c1.6-1.2,3.1-2.6,4.7-3.7c0.6-0.5,2.8-3.1,3.4-2.4
			c0.5,0.5-0.1,3-0.2,3.7c-0.2,1.2-0.5,2.4-0.8,3.6c-0.6,2.1-1.5,4.1-2.3,6.2c-7.2,18.1-16.9,34.8-28.1,50.7
			c-2.1,3.1-3.4,6.1-3.2,9.9c0.2,3.8-0.5,7.6-2,11.1c-8.2,21-19.5,40-36.8,54.9c-5,4.4-10.8,8-16.9,10.6c-5.4,2.2-10.8,4.1-16.2,6.3
			c-9.5,3.8-19.8,5.5-30,4.8c-14.5-0.7-11.2-0.7-17,10.3c-1.6,2.9-2.9,6-4.5,9.3c2.1,0.8,3.2-0.5,4.4-1.2
			c18.5-10,37.7-18.1,58.5-22.1c8.5-1.6,17.2-2.5,25.8-3.9c18.2-2.9,35.2-9.3,51.4-18.1c1.7-0.9,3.8-3.1,5.3-1.5
			c2,2.1-0.8,3.9-2.1,5.5c-14.1,17.9-32.3,32.2-53.1,41.7c-11.5,5.3-23.2,10.3-35.6,13.3c-3.1,0.8-4.9,2.6-6.6,5.2
			c-4.3,6.6-9.1,12.5-15.7,17.1c-12.1,8.3-25.4,10.2-39.5,8.8c-8-0.8-8-1-9.3,7c-0.5,2.6-0.8,5.2-1.1,7.7c1.9,1.5,3.1-0.1,4.4-0.6
			c19.3-8,38.4-16.6,57.2-25.8c17.9-8.7,37.2-12.1,56.7-14.2c6.2-0.7,12.3-2,18.4-3.2c1.1-0.2,2.2-0.6,2.9,0.7
			c0.4,1-0.2,1.7-0.8,2.4c-0.7,0.9-1.4,1.7-2.3,2.5c-17.5,16.3-36.1,31.2-58,41.2c-15.5,7.1-31.6,12-49,11.5
			c-9.3-0.3-18.1-1.5-26.3-6.3c-3.8-2.2-4.4-1.7-5,2.5c-1.6,13.8-0.6,27.7,3.1,41c0.6,2.3,1.3,4.5,1.8,6.8c0.1,0.6,1.4,5.3-0.4,4.9
			c-0.7-0.1-0.8-1.3-1-1.9c-4.7-16.8-8.4-33.7-5.4-51.4c0.5-3,0.3-5.5-3.2-7.1c-24.6-11.6-38.2-32.6-48-56.7
			c-4.8-12-7-24.8-8.7-37.6c-0.5-3.3-1-6.5-1.5-9.8c-0.3-1.6-0.5-3.2-0.8-4.9c-0.1-0.6-0.5-1.5-0.1-2.1c0.5-0.6,1.4-0.9,2.2-0.6
			c0.8,0.4,1.4,1.8,1.9,2.5c0.7,1,1.5,2,2.2,3c3,4,6.3,7.8,9.6,11.5c1.7,1.9,3.4,3.8,5.2,5.6c10.3,11.1,18.8,23.8,25.2,37.6
			c0.5,1.2,0.8,2.6,2.7,3.4c-0.9-4.5-2-8.7-2.6-13c-1.4-9.4,0-18.6,0.9-27.9c0.3-2.7,0.4-5.2-0.8-7.8C35.7,200,34.5,174.8,39,149
			c0.4-2.4,0.6-4.9,1-7.3c0.3-1.7-0.1-3.9,2.1-4.4c1.8-0.4,2.7,1.4,3.6,2.6c5.2,7,10.3,14,14.1,21.9c7.1,14.8,10.9,30.6,13.6,46.7
			c2.6,15.8,5.5,31.6,5.8,47.7C79.1,257,79,257.9,80.1,258.4z M92.8,235.6c0.7-3.9,1.3-6.6,1.8-9.4c1-5.5,1.5-11.1,2.9-16.4
			c5.2-20.5,8.4-41.4,11.3-62.4c3.6-25.3,3.7-50.6-3.6-75.5c-2.2-7.5-3.8-15.3-7.5-23.9c-2,9.7-5.4,17.4-8.9,25.1
			C72.2,108.8,66.3,146,73.7,185c2.7,14,6.3,27.8,12.1,40.9C87.2,229.1,88.6,232.4,92.8,235.6L92.8,235.6z M177,17.1
			c-6,11.1-13,21.1-20.3,30.9c-10.3,13.8-18.5,28.8-26.1,44.2c-6,12.1-9.9,24.7-10.1,38.4c-0.2,17.9-3.5,35.4-6.1,52.9
			c-0.7,4.7-2.4,9.4-1.9,15.1c2.3-2.1,2.7-4.4,3.6-6.3c4.1-8.9,8.4-17.7,14.6-25.4c10.8-13.4,19.3-28.2,27.5-43.3
			c11.7-21.6,19.4-44.4,21.6-68.9C180.9,42.2,180,29.4,177,17.1z M116,207.2c15.6-1.4,29-7.1,41.1-15.9
			c36.9-26.7,63.2-61.6,80.2-103.8c0.5-1.2,0.9-2.5,1.3-3.7s-0.3-1.9-1.4-1.1s-2.3,2.3-3.6,3.3l-5,3.7l-9.9,7.3
			c-15.7,11.5-30.3,24.2-42.3,39.6c-10,12.8-20.3,25.4-30.3,38.2c-7.5,9.7-15.5,19-25,26.8C119.3,203,117.4,204.3,116,207.2z
			 M161.1,139.8c2,0.4,3.3-1.1,4.6-2.1c12.8-10.8,25-22.1,34.9-35.8c5.9-8.2,11.2-16.7,13.8-26.5c3.9-14.4,7.5-28.8,10.2-43.5
			c1.5-7.4,2.4-14.9,2.8-22.5c0.1-1.3,0.8-5.9-1.9-4.5c-0.5,0.3-0.9,0.7-1.2,1.2c-6,8.3-12.3,16.4-18.1,24.8
			c-12.4,17.8-22.6,36.8-29.3,57.5c-5,15.7-10.1,31.3-15.3,46.9C161.1,136.8,160.1,138.2,161.1,139.8L161.1,139.8z M81.1,265.3
			c1.1,1.2,2.5,2.1,4,2.6c15.6,7,31.8,5.5,47.9,3.1c12.9-1.9,24.7-7.4,36.6-12.5c19.1-8.2,36.2-20.4,50.1-35.9
			c1.6-1.7,3.6-3.2,4.1-5.9c-2.5-0.5-4.1,0.8-5.8,1.7c-17.3,9.3-36,14.3-55.4,16.4c-25,2.8-48.1,10.8-70.2,22.4
			C88.5,259.4,84.3,261.4,81.1,265.3L81.1,265.3z M67.8,322.2c4.3,3.5,9.4,5.8,14.8,6.7c7.2,1.3,14.6,1.7,21.9,1.1
			c15.8-1.5,30.4-6.6,44.4-13.6c19.3-9.7,35.9-23.1,51.6-37.7c0.4-0.4,0.9-0.9,0.4-1.8c-4.3,0.6-8.7,1.4-13,1.9
			c-21.1,2.4-41.9,5.8-61.2,15.4c-17.3,8.6-35,16.6-52.9,23.9C71.7,318.9,69.4,319.5,67.8,322.2z M43.3,141h-0.1
			c-1.3,0.1-1,1.8-1.2,2.7c-0.3,1.9-0.6,3.8-0.9,5.6c-2.4,15.5-3.5,31.4-0.7,46.9c4.3,23.8,15.2,44.4,30.8,62.7c1.5,1.7,3,3.8,6,3.6
			c0.7-7-0.3-13.6-1.1-20.2c-2.3-20.3-5.2-40.5-10.9-60.3c-1.1-4-2.5-7.9-4-11.8c-2.5-6.3-5.6-12.3-9.3-18c-1.9-2.9-3.9-5.7-6-8.4
			C45.3,143,44.4,141.1,43.3,141z M204.2,151.5c-2.6,0.5-3.4,2.3-4.5,3.5c-7.5,8.5-15.5,16.6-24,24.1c-3.8,3.4-7.9,6.5-11.4,10.3
			c-7.5,8.2-16.7,14.8-26.9,19.3c-9.2,4-18.1,8.6-26.6,13.8c-5.7,3.5-10.7,8.1-14.8,13.3c10.6,0.7,20.2,2.3,29.8-1
			c8.8-3,17.7-6.1,26.2-9.9c4.3-1.9,8.3-4.3,12-7.2c19-14.9,30.8-34.8,39.3-56.9C204.6,157.9,204.9,154.6,204.2,151.5z M62.3,319.7
			C57.3,300,50.1,281,40.8,262.9C31.7,244.7,17,230.9,3.7,216c0.3,5.8,1.1,11.3,1.8,16.8c3.4,24.3,11.7,46.6,27.8,65.4
			C41.1,307.2,49.4,315.5,62.3,319.7z M71.8,299.4c24,7.5,51.6-6.2,58.2-25.6c-5.3,0.9-10.9-0.7-15.6,2.5
			c-11.9,8-24.9,13.8-37.8,19.7C74.9,296.8,73.1,297.2,71.8,299.4L71.8,299.4z M64.3,292.7c-0.9-8-0.7-16.1,0.7-24.1
			c0.7-4,1-8.3-0.5-12.2c-1.6-4.1-4.3-7.3-6.5-11c-2.7-4.4-5.2-8.8-7.8-13.2C45.3,255.6,49.1,275.5,64.3,292.7L64.3,292.7z
			 M110.5,276.6l-0.6-1.4c-3.3-0.2-6.7-0.2-9.9-0.8c-3.5-0.6-6.8-1.9-10.3-2.6s-7.1-4.6-10.4-2.3c-2.9,2.1-3.3,6.6-4.4,10.2
			c-1.6,5-3.8,9.9-3.8,16.2C85.3,290.5,97.9,283.6,110.5,276.6L110.5,276.6z M118.6,194.3c13-15.9,25.7-31.9,37.3-48.8
			c0.6-0.9,1.1-1.9,1.4-3c1.2-4.9,2.8-9.7,4.5-14.5c0.8-2.4,1.7-4.8,2.4-7.3c0.3-1,0.4-2,0.5-3.1c0.1-1-0.1-1.3-0.8-0.4
			c-0.4,0.7-0.8,1.3-1.1,2.1c-0.8,1.7-1.7,3.4-2.5,5.2c-4.4,8.7-9.3,17.2-14.6,25.3c-5.3,8.1-10.9,16.1-16.8,23.8
			C124,179.8,120.6,186.8,118.6,194.3L118.6,194.3z M121.4,197.5c21.7-19,36.7-43.7,55.1-65.6c-5.9,4.3-11.5,8.9-17.4,13.1
			c-1,0.9-1.8,1.9-2.5,3.1c-10.1,14.4-20.9,28.2-31.5,42.1C123.6,192.4,121.7,194.3,121.4,197.5L121.4,197.5z M146.4,201.1
			c-8.5,3.6-17.4,6.3-26.5,8c-10.3,1.9-14.7,6.3-18.2,17.5C115.3,215.3,131.8,209.9,146.4,201.1L146.4,201.1z M68.6,291.9
			c2.1-6.3,4.1-12.7,6.4-18.9c2.7-7.2,2.5-5.6-3-10.3c-1-0.8-1.8-2-3.9-1.4C66.7,271.3,64.3,281.5,68.6,291.9z M63.5,313
			c2.2-3.3,2.2-6.9,2.9-10.3c0.4-1.5,0.1-3.2-1-4.4c-5.5-5.7-9.3-12.6-14-19C55.8,290.4,59.4,301.7,63.5,313z"/>
	</g>
</g>
</svg>
