<?xml version="1.0" encoding="utf-8"?>
<!-- Generator: Adobe Illustrator 24.1.2, SVG Export Plug-In . SVG Version: 6.00 Build 0)  -->
<svg version="1.1" id="Слой_1" xmlns="http://www.w3.org/2000/svg" xmlns:xlink="http://www.w3.org/1999/xlink" x="0px" y="0px"
	 viewBox="0 0 205 266.2" style="enable-background:new 0 0 205 266.2;" xml:space="preserve">
<style type="text/css">
	.st0{fill-rule:evenodd;clip-rule:evenodd;}
</style>
<g id="Слой_2_1_">
	<g id="Слой_1-2">
		<path class="st0" d="M165.9,51.5c2,1.1,3.8,0.1,5.5-0.1c4.9-0.5,9.9,0.4,14.2,2.6c3.6,1.9,7.1,3.7,10.6,5.6
			c7,3.7,10.3,10.2,8.1,17.8c-4.4,14.6-12.6,26.6-26.8,33.3c-10.7,5-29.4,5-41.1-6.7c-1.3-1.3-2.5-2.6-3.8-3.8
			c-3.8-3.7-7.6-6.3-13.6-4.8s-12.4,1.2-18.6,1.1c-7.4-0.2-14.7,1.2-21.5,4.2c-4.6,1.9-8.3,5.4-10.5,9.8c-3.3,6.6-6.3,13.2-8.3,21.7
			c6.2-3.1,12.7-5.4,19.5-6.7c1.7-0.3,2.4-1.9,3.3-3.2c5.2-7.6,13-12.1,20.1-17.3c1.9-1.2,4-2,6.2-2.4c12.3-3,30.2,5.1,36.2,16.2
			c2,3.5,2.7,7.6,2.1,11.6c-1.6,10.2-5.6,18.8-15.5,23.4c-0.9,0.5-1.7,1-2.5,1.5c1.5,1.7,3.4,1.1,5,1.5
			c10.7,2.3,17.3,11.3,17.4,22.2c0.3,24.3-25.6,43.9-48.6,39.4c-4.4-0.9-6.7,0.4-8.7,3.9c-0.1,0.2-0.3,0.4-0.4,0.6
			c-6.5,9.9-6.2,12,3.1,18.9c9.1,6.8,18.4,13.4,27.5,20.1c1.6,1.2,3.6,1.9,4.6,3.9c-1.8,1.1-2.9-0.4-4-1.1
			c-12-7.6-23.6-16-34.5-25.1c-2.1-1.7-4.1-3.3-6.8-3.9c-5-1.1-9.7-1-13.4,3.4c-4.3,5-10.2,6.9-16.6,7.6c-7.5,0.7-13-2.8-16.8-8.8
			c-4.8-7.6,1.3-19.2,10.7-21.1c5.3-1.1,10.9,0.3,15,3.9c3.3,2.6,6.8,5.1,9.3,8.6c2.3,3.3,5.3,4.5,9.3,3.3c0.4-1.9-1.1-2.8-2.1-4
			c-11.4-12.9-19.3-28.6-23-45.4c-0.6-3.3-2.2-6.3-4.6-8.6c-4.3-4.2-8-9-11-14.2c-1.4-2.4-3.1-3.1-5.9-3.1
			C20.5,157,9,148.9,4.1,135.5c-1.4-3.7-2.5-7.6-3.4-11.5C-2,112,2.9,103,14.3,98.5c1.6-0.7,3.5-0.6,4.9-2c0.5-2-1-3.3-1.8-4.8
			c-0.3-0.6-0.7-1.1-1.1-1.7c-6.6-11.1-6.3-20.8,1.7-28c8.3-7.5,19.5-10.4,30.9-4c7.6,4.1,12.9,11.5,14.3,20
			c2.1,11.3,0.8,21.8-6.7,30.9c-2.2,2.7-3,5.3-1.8,8.6s1.1,7.4,3.6,12.2c2.7-11.7,10.2-20.1,10-31.4c-0.1-3.9,1.3-7.9,2.2-11.8
			c0.8-3.1,0-5.5-2-8C57.8,64.9,54.5,48.8,55,32.1C55.4,16,70.7,1.8,86.6,0.4c6.7-0.6,13.3-0.8,19.7,1.7c3.9,1.5,7.3,3.4,9.3,7.1
			c1.3,2.4,3,2.7,5.5,2.3c8.2-1.1,16.5-0.6,24.5,1.6c18.1,4.6,25.5,17,20.9,35.2C166.4,49.4,166.1,50.4,165.9,51.5z M93.1,74.8
			c10.7,2.7,21.7,3.9,32.8,3.7c3.6-0.1,7.1-0.9,10.4-2.4c11.1-5,20.3-13.3,26.3-23.8c8.3-14.1,2.2-30.3-13.1-35.9
			c-5.5-1.9-11.2-3-17-3.2c-18.6-1-32.5,6.1-40.5,23.3c-5.5,11.7-7.3,23.7-1.3,36.9c15.7-15.8,32-30,52.7-37.8
			c-8.3,6.1-17.9,10.1-26,16.6C109.1,59,100.7,65.6,93.1,74.8z M128.9,93.2c4.1,4.8,8.8,9.1,13.9,12.8c10.9,7.6,22.8,7.6,34.2,2.5
			c13.3-6,20.8-17.8,25.1-31.3c2-6.3-0.3-11.4-5.9-14.8c-4.1-2.6-8.4-5-12.9-7c-8.9-4-16.9-2.2-23.5,4.8
			c-5.9,6.3-12.2,12.3-19.7,16.8c-4.4,2.6-7.4,6.7-9.2,11.9c16.9-6,33-14.8,51.7-13.4c-5.9,2.7-12.5,1.7-18.5,3.7
			s-11.9,3.7-17.6,6.3S134.7,89.8,128.9,93.2z M122.2,132.2l-0.5,1.3c-5.9-0.8-11.7-2.3-17.3-4.3c-4.8-1.7-9.9-2.6-15.1-2.4
			c-5.2,0.2-5.6,0.9-3.5,5.4c2.8,6.3,6.8,12,11.7,16.9c3.7,3.6,8.1,6.4,13.3,7.2c16.2,2.3,31.3-8.6,34.4-24.7
			c1.1-5.9-0.3-11.1-4.4-15.4c-6.3-6.7-14.8-11-23.9-12c-2.9-0.5-5.8-0.1-8.6,0.9c-9,3.9-16.8,10-22.7,17.8c-0.2,0.3,0,0.8,0.1,1.5
			c6.1,0.3,12.3,0.2,18.3,2.3S116.2,130.4,122.2,132.2z M74.9,79.6c2-0.7,3.1-0.9,4.1-1.3c8.1-3.7,8.7-4.4,6.6-12.9
			c-3.9-15.4,5.9-43.1,24.5-50.5c5.5-2.2,5.6-3.9,1.3-7.6c-0.8-0.7-1.8-1.3-2.8-1.8C97.7,0.2,86.2,0.2,76.2,5.2
			C64.4,11,56.6,21.4,56.9,35.6c0.3,11.8,3.1,23.5,8.3,34.2c1.4,2.9,2.9,6,6.2,7.7c2-2.2,1.5-4.8,1.6-7.1c0.4-12,2.8-23.9,7.1-35.2
			c0.5-1.3,0.5-3.1,3.4-3.5C77.4,46.9,74.4,63.2,74.9,79.6z M132.8,181.4c-0.9,3.6-3.2,6.2-5.6,8.7c-4.3,4.5-9,8.6-14,12.3
			c-3.7,2.8-7.2,5.9-10.4,9.3c-0.9,0.9-2.2,1.8-1.6,3.4s2.3,1.1,3.5,1.5c0.2,0.1,0.4,0.1,0.7,0.1c21.9,2.9,45-16.1,44.4-38.5
			c-0.1-10.4-8.3-19-18.8-19.6c-4.7-0.2-8.1,1-10.3,5.5c-2.8,5.9-7.4,10.7-13,14c-1.3,0.8-2.5,1.9-3.4,3.2c-5.9,9.2-6.8,19.3-5.4,31
			c5.6-5.6,11.6-10.7,18-15.4C122.8,192.4,127.2,186.3,132.8,181.4z M39.7,87.1c2.9,1.4,4,3.9,5.2,6.2c2.2,4.3,4.1,8.9,6.2,13.3
			c1.3,2.7,2.4,2.8,4.3,0.5c0.7-0.9,1.3-1.8,1.8-2.8c5.4-8.7,5.8-18,3.5-27.7c-2.6-10.7-11-18.5-21.9-19.6
			c-8.4-1.1-16.7,2.5-21.7,9.4c-5.3,7-3.5,14.3,0.3,21.3c2,3.7,4.1,7.4,6.3,11c5.6,9.1,10.9,14.6,26.3,12.5
			C48.2,102.4,43.2,95,39.7,87.1z M38.3,152.7c1.2-0.3,2.2-1.3,2.4-2.6c2.2-6.5,3.5-13.3,4.2-20.2c0.4-4.3-1-8.3-2.8-12.2
			c-0.9-1.9-2-3.7-4-4.2c-6.6-1.9-11.2-6.2-14.9-11.7c-1.5-2.3-3.3-2.6-5.7-2.1c-8.7,1.8-15.7,9.5-15.2,18.5s3,17.5,8.5,24.9
			c2.7,3.5,6.1,6.5,10,8.6c4.5,2.7,9.7,3.8,14.9,3.1c-0.5-3.6-2.5-5.7-4.1-8c-4.4-6.7-8.3-13.7-11.6-21c-0.4-0.9-1.9-2.2,0.5-3.7
			C25.6,133,31.1,143.4,38.3,152.7L38.3,152.7z M87,232.9c1.9-5.5,4.8-10.7,8.5-15.3c0.8-0.8,1.2-1.9,1.3-3
			c-1.5-11.4-0.7-22.5,4.6-33.9c-10,0.5-17.2-2.7-23.2-9.1c-2.3-2.4-4.9-2.5-7.8-0.7c-2.8,1.8-5.8,3.3-8.9,4.6
			c-3.4,1.4-3.9,3.5-3.1,6.8c2.5,10.2,5.9,20.1,11.4,29.1C74.3,219.1,79.4,226.4,87,232.9z M120,158.1c-13.4,2-22.4-3.7-29.4-13.8
			c-2.8-4-3.5-4.1-7.2-0.4c-5.4,5.4-7.6,12.1-7.8,20.2c8.2-2.5,15.8-5,23.6-6.1c-1.2,2.1-3.3,2.3-5.2,2.9c-4,1.2-8.2,2.2-12.2,3.5
			c-1.7,0.5-3.8,0.9-4.3,2.7c-0.7,2.2,1.8,2.8,3,3.9c1,0.9,2.1,1.7,3.1,2.5C98.5,186.4,117.4,172.8,120,158.1z M57,174.5
			c3.3-0.1,5-1.7,7.1-2.5c5.9-2.1,9.2-5.8,9.7-12.6c0.4-6.8,3.4-13.1,8.5-17.6c4.3-3.7,3.8-3.5,1.4-9c-0.9-2-1.6-4.7-4.3-4.5
			c-7.1,0.4-14,3-19.6,7.4c-0.8,0.8-1.3,1.8-1.5,2.9C55.4,150.3,54.9,162.5,57,174.5z M75.1,98.6c0.8,0.8,2.1,0.9,3,0.3
			c8.1-3.6,16.6-4.7,25.3-4.4c3.5,0.1,7.1-0.5,10.6-0.3c9.8,0.5,14.5-5.7,18.5-13.1c-0.4-0.7-1.2-1-2-0.9
			c-9.8,1.6-19.5,0.2-29.1-1.4c-13.7-2.3-11.3-1-17.6,7C80.6,89.8,77.2,93.8,75.1,98.6z M47.8,232.4c7.5-3.3,15.2,0.5,23.2-0.5
			c-3.1-5.3-7.3-8.3-11.6-11.1c-3-1.9-6.7-2.7-10.3-2.1c-6,0.9-9.4,4.7-11.2,10.2c-1.7,5.3,0.8,9.1,4.7,12.2
			c7.8,6.5,21.3,3.8,27.3-5.8C62.7,233,55.2,233.2,47.8,232.4z M53.1,172.1c1.7-2.1,0.8-4.1,0.7-6c-0.4-6.5-0.7-13,0.9-19.3
			c2.4-9.1,0.6-17.7-1.3-26.4c-1.5-6.8-2.4-7.3-10.1-5.5c5.8,9.8,3.8,19.8,1.3,29.9c-0.7,2.8-1.6,5.6-2.5,8.3
			c-0.5,1.5-1.2,2.9-0.3,4.4C44.9,162.9,48,168.2,53.1,172.1z M70.4,98.4l1.1,0.4l15.8-21.4c-4.2,1.3-8.3,2.9-12.1,5
			c-1.2,0.6-2,1.8-2.2,3.1C72.1,89.8,71.2,94.1,70.4,98.4z"/>
	</g>
</g>
</svg>
