<?xml version="1.0" encoding="utf-8"?>
<!-- Generator: Adobe Illustrator 24.1.2, SVG Export Plug-In . SVG Version: 6.00 Build 0)  -->
<svg version="1.1" id="Слой_1" xmlns="http://www.w3.org/2000/svg" xmlns:xlink="http://www.w3.org/1999/xlink" x="0px" y="0px"
	 viewBox="0 0 280.5 382.3" style="enable-background:new 0 0 280.5 382.3;" xml:space="preserve">
<style type="text/css">
	.st0{fill-rule:evenodd;clip-rule:evenodd;fill:#FFFFFF;}
</style>
<g id="Слой_2_1_">
	<g id="Слой_1-2">
		<path class="st0" d="M141.9,382.3c-2.4-1.5-3-3.4-3.9-5c-5.8-10.3-10.5-21.1-15.3-31.9c-2-4.5-2-4.5-6.8-3
			c-2.5,0.8-5.1,1.6-7.6,2.6c-20.9,7.9-39.7,2.8-57.5-9.2c-15.3-10.3-24.9-25-33.1-41.1C8.3,276.2,2,257,1.4,236
			c-0.1-4.4-0.9-8.9-1.3-13.3c-0.2-2.5,0.8-3.7,3.6-3.1c5.7,1.1,11.4,1.8,16.5,5c8.7,5.4,18.6,8.9,26,16.1
			c5.8,5.6,11.4,11.3,16.7,17.3c16.9,18.9,32.5,39,46.6,60.2c1.2,1.8,2.5,3.6,3.8,5.4c1.5-0.6,0.8-1.5,0.6-2.3
			c-6.3-19.7-10.9-40-13.6-60.6c-0.5-5.4-3.3-10.2-7.7-13.4c-6.9-5.3-13.3-11.1-19.2-17.6c-7.9-8.7-13.6-18.7-16-30.4
			c-0.5-2.2-1.1-4.3-2-6.4c-8.7-23.3-7.4-45.8,4.8-67.6c0.3-0.6,0.6-1.2,1-1.7c2.3-3.4,3.6-3.6,5.9-0.3c14,20.5,25.6,41.9,27.7,67.2
			c0.3,3.9,0.8,7.8,1.2,11.9c0.9-0.2,1.4-1,1.3-1.9c1.6-20.2,5.8-40.2,12.6-59.3c0.8-2.4,1.3-4.6,0.4-7.1c-7.1-20.5-4.9-41,1.8-61
			c9.3-28.2,27.6-48.9,54.6-61.8c8.3-3.9,16.5-7.8,25.4-10.3c3-0.9,6.1-1.3,9.2-1c4.2,0.5,4.9,1.3,4.5,5.6c-0.8,8-2.7,15.8-5.7,23.2
			c-10.1,24.7-22.6,47.9-39.9,68.4c-8.8,10.6-18.9,20.2-30,28.4c-20.7,15.1-17,10.4-24,35.4c-7.3,26.5-8.3,53.6-6.3,80.9
			c0.4,4.8,1.4,9.5,2.2,15.2c1.9-2.6,1.7-4.9,1.9-7c3.1-23.7,7.6-47.1,15.7-69.6c5.2-14,12.3-27.3,21.1-39.3
			c1.4-1.7,2.7-3.5,3.8-5.5c9.8-19.7,25.6-34,42.5-47.3c16.4-12.8,35.1-22.3,55.1-27.8c10.5-3,20.9-6.4,31.3-9.6
			c1.3-0.4,2.6-0.7,3.9-1c1.1-0.3,2.4-0.3,3,0.8s-0.1,2.2-0.9,3c-1.1,1.1-2.2,2.2-3.4,3.2c-4.9,4.2-10.1,8.1-15.5,11.6
			c-2.5,1.4-4.3,3.9-4.8,6.8c-1.4,6.6-4.7,12.5-7.6,18.5c-13.3,27.7-26.9,55.3-42.8,81.6c-9.6,15.9-21.7,30.1-35.8,42
			c-16.1,13.6-31.4,28.4-48,41.5c-5.2,4.3-9.6,9.4-13.1,15.1c-2.3,3.3-3,7.5-2.1,11.4c6.6,30.8,17.4,60.5,32.2,88.2
			C139.9,376.4,141.8,378.6,141.9,382.3z M105.3,274.1c5.8-6.5,9.7-12.5,15.4-16.9c16.9-13.1,32.2-28,48.4-41.9
			c15.5-13.3,28-29.1,38.3-46.7c13.4-22.9,24.6-46.9,36.7-70.4c2.9-5.5,5.2-11.3,7.7-17c1-1.9,1.5-4,1.5-6.1
			c-2.3-0.9-3.8,0.4-5.3,1.1c-7.7,3.4-15.5,6.8-23.1,10.4c-18.9,9-37.7,18.1-55,30c-21.7,15-36.2,35.4-45.8,59.3
			c-10.6,26.2-15.6,53.7-18.7,81.7C104.7,263,104.6,268.6,105.3,274.1z M117.9,130.1c0.3,0.2,0.7,0.2,1,0.1c1.3-0.5,2.5-1.2,3.6-2.1
			c2-1.3,3.9-2.6,5.8-3.9c3.8-2.7,7.5-5.6,11.1-8.7c7.1-6.1,13.7-12.8,19.6-20c12.6-15.3,23.2-32.2,31.6-50.2
			C196.1,33.8,201,22.2,203,9.5c0.3-1.7,0.8-3.4-0.6-5.5c-17.4,10.3-35.9,18.3-51.6,31c-4.3,3.5-8.8,6.8-12.3,11.2
			C126.5,62,119.8,80,117.3,99.6c-0.8,6.6-1.6,13.1-2.3,19.7c-0.1,0.9-1.4,6.8-0.1,7.3s1.7-2.3,2-3c0.9-2.2,1.9-4.3,2.8-6.5
			c1.9-4.3,4-8.5,6.1-12.7c4.7-9.5,9.8-18.8,15-28.1c2.6-4.6,5.2-9.3,7.8-13.9c2.5-4.4,5.6-8.9,7.6-13.6
			c-4.8,11.6-10.6,22.8-16.5,34c-4.9,9.4-9.9,18.8-14.4,28.4c-2.3,4.8-4.4,9.7-6.4,14.6C118.6,126.8,117.1,129.5,117.9,130.1
			L117.9,130.1z M6.5,223c4.2,6.9,8.1,12.9,11.5,19.1c9.4,16.7,20,32.7,31.8,47.8c12.8,16.3,27.9,30,46.7,39.1
			c6.8,3.3,14.1,5.9,22.2,9.1c-1.1-3.1-2.6-6.1-4.5-8.7c-15.9-24.8-33.9-48-53.1-70.3c-12.4-14.5-26.8-25.9-44.1-33.9
			C13.8,223.5,10.2,222.7,6.5,223z M115.1,339.6c-3.1-2-6.5-3.6-10-4.9c-5.7-1.9-11.2-4.4-16.4-7.4c-17.5-10.8-32.6-24.9-44.6-41.6
			c-10.3-14.2-20.3-28.7-28.7-44.2c-2.4-4.4-4.9-8.7-8.6-12.2c4.9,16.2,5.8,32.9,9.4,49.2c1.3,6.3,3.2,12.5,5.6,18.5
			c10.6,24,28.1,40.4,53.3,47.8C88.6,348.7,101.8,346.8,115.1,339.6z M65.7,126.8c1.8,21,0.2,40.7,5.6,60.1s14,37,24.3,55.6
			c0.4-2.3,0.7-2.9,0.6-3.5c-1.7-10.4-1.9-20.8-2.2-31.3C93,178.5,85.2,151.6,65.7,126.8z M154.6,125.7c4.2-3.2,8.3-6.5,12.5-9.6
			c19.6-14.3,41.3-24.6,63.4-34.2c15.2-6.6,29.9-13.9,42.5-24.9c1-0.9,2.9-1.4,2.5-3.4c-1.4-0.7-2.7,0.1-3.9,0.5
			c-11.1,3.4-22.1,7-33.2,10.2c-28.9,8.3-52.1,25.6-73,46.5C161,115.1,156.7,119.5,154.6,125.7z M110,127.6c0.3,1,0.8,1.7,1.3,1.6
			c1.4-0.3,1.4-7.7,1.5-8.9c0.6-4.9,1.2-9.8,1.7-14.7c0.8-10.9,3.1-21.6,6.7-31.9c4.8-13,11-25.3,21.6-34.8
			c7.4-6.7,15.5-12.6,24.3-17.6c8.8-4.8,17.5-9.7,26.2-14.7c1.6-0.9,3.7-1.4,4.6-3.5c-14.6-1.4-51.7,19.5-66.4,38.2
			c-9,11.3-15.7,24.3-19.6,38.1c-2.2,8.3-3.4,16.8-3.6,25.3c-0.1,4.4,0.1,8.8,0.4,13.2C109,119.1,109.1,124.8,110,127.6z
			 M63.7,137.1c-6.6,18.8-8.3,39-4.8,58.6c3.8,21.5,17.4,35.8,33.9,48.3C85,227.2,76,210.9,70.6,193C65,174.7,64.3,155.9,63.7,137.1
			z M13,277.4c-2.7-15.3-3.2-31-9.1-45.5C3.3,247.6,6.4,263.2,13,277.4z M54.2,177.4c-0.8-16.8,5-32.6,7.6-48.8
			C52.5,142.2,50.3,163.1,54.2,177.4L54.2,177.4z"/>
	</g>
</g>
</svg>
